<svg xmlns="http://www.w3.org/2000/svg" viewBox="0 0 34.408 41.949"><path fill="#fff" d="M11.408 41.949C5.165 41.915 0 29.831 0 23.677c0-10.053 7.953-12.254 11.019-12.254a13.248 13.248 0 0 1 4.157.97 9.69 9.69 0 0 0 2.374.645 7.682 7.682 0 0 0 1.7-.523 14.259 14.259 0 0 1 5.133-1.177h.012c1.5 0 6.063.313 8.8 4.216l.642.915-.924.661c-1.32.944-3.729 2.667-3.729 6.08a6.861 6.861 0 0 0 4.039 6.344c.579.33 1.177.67 1.177 1.414 0 .486-4.09 10.92-10.03 10.92a8.422 8.422 0 0 1-3.387-.779 7.172 7.172 0 0 0-3.005-.688 8.092 8.092 0 0 0-2.387.612 12.223 12.223 0 0 1-4.14.916z" data-name="Контур 1162"/><path fill="#fff" d="M25.498 0c.181 6.543-4.5 11.083-9.172 10.8C15.556 5.576 20.998 0 25.498 0z" data-name="Контур 1163"/></svg>