<svg xmlns="http://www.w3.org/2000/svg" viewBox="0 0 184.356 185.736"><g fill="#fff"><path d="M101.638 166.59c-6.733 2.584-14.176 2.71-22.127.376a55.172 55.172 0 0 1-11.659-5.047 78.8 78.8 0 0 1-11.602-8.159 106.422 106.422 0 0 1-11.206-10.986 134.3 134.3 0 0 1-10.47-13.528 164.794 164.794 0 0 1-17.373-33.539l-.311-.81-1.751-4.563-.076-.198-.005-.013a4.069 4.069 0 0 1-.107-2.76 4.3 4.3 0 0 1 2.437-1.657l13.821-5.294a56.814 56.814 0 0 1-1.44-10.265 51.9 51.9 0 0 1 .298-8.646 46.583 46.583 0 0 1 1.692-8.08 40.76 40.76 0 0 1 3.01-7.29 35.141 35.141 0 0 1 4.264-6.267 29.69 29.69 0 0 1 11.995-8.55l22.162-8.506a31.266 31.266 0 0 1 14.095-1.916l3.76-1.443a30.643 30.643 0 0 1 13.868-1.896 32.689 32.689 0 0 1 6.747 1.431 36.554 36.554 0 0 1 6.496 2.834 40.244 40.244 0 0 1 6.04 4.139 43.129 43.129 0 0 1 5.415 5.33 46.669 46.669 0 0 1 6.074 9.106l4.279-1.642s2.943-1.332 4.881-1.124l1.726.767a5.5 5.5 0 0 1 1.594 2.2l.012-.004 1.616 4.21a164.8 164.8 0 0 1 9.53 36.548 135.341 135.341 0 0 1 1.274 17.059 107 107 0 0 1-.978 15.663 78.731 78.731 0 0 1-3.159 13.831 55.022 55.022 0 0 1-5.285 11.552c-4.349 7.056-9.964 11.942-16.699 14.527zM24.865 95.242c3.807 8.89 7.736 18.201 12.77 25.69 3.101 4.623 5.594 8.856 9.013 12.784a102.457 102.457 0 0 0 10.503 10.475 74.751 74.751 0 0 0 10.846 7.805c3.658 2.136 7.705 4.786 11.268 5.877 7.412 2.269 14.336 2.202 20.574-.192l30.434-11.683c6.244-2.397 11.432-6.978 15.422-13.625 1.921-3.193 3.155-7.87 4.443-11.908a75.249 75.249 0 0 0 2.84-13.059 103.222 103.222 0 0 0 .793-14.81 130.55 130.55 0 0 0-1.57-16.058c-1.26-8.835-7.892-28.52-7.892-28.52l-.639-1.665-18.918 7.243a4.508 4.508 0 0 1 .815 2.384c-.09 1.178-.37 1.653-1.369 2.036a2.1 2.1 0 0 1-2.63-.501 4.8 4.8 0 0 1-1.057-2.295l-82.01 31.4a4.537 4.537 0 0 1 .842 2.51 2.115 2.115 0 0 1-1.688 2.362 2.667 2.667 0 0 1-3-.562 3.72 3.72 0 0 1-1.025-2.445l-9.952 3.81c.383.992.774 1.98 1.187 2.947zm106.944-53.37a34.968 34.968 0 0 0-8.975-11.836 38.349 38.349 0 0 0-5.649-3.957 33.991 33.991 0 0 0-6.059-2.732 30.248 30.248 0 0 0-6.286-1.402 25.977 25.977 0 0 0-10.317.495c.338.114.682.23 1.022.357a40.536 40.536 0 0 1 7.115 3.403 46.393 46.393 0 0 1 6.663 4.873 51.811 51.811 0 0 1 6.01 6.225 56.51 56.51 0 0 1 5.83 8.656zm-14.806 5.671a41.477 41.477 0 0 0-3.598-5.837 49.851 49.851 0 0 0-5.453-6.008 44.5 44.5 0 0 0-6.231-4.66 38.331 38.331 0 0 0-6.643-3.269 32.459 32.459 0 0 0-6.856-1.76 49.12 49.12 0 0 0-2.455-.291l-13.91 5.34c-3.982 1.528-6.478 3.878-9.39 7.156a30.227 30.227 0 0 0-3.736 5.25 34.218 34.218 0 0 0-2.672 6.083 38.274 38.274 0 0 0-1.55 6.72 39 39 0 0 0 .005 6.853 32.556 32.556 0 0 0 1.444 7.8zM51.599 72.597a46.508 46.508 0 0 1-1.563-10.768 43.812 43.812 0 0 1 .455-7.584 40.134 40.134 0 0 1 1.728-7.12 36.387 36.387 0 0 1 2.922-6.45 32.719 32.719 0 0 1 4.06-5.58 30.128 30.128 0 0 1 3.692-3.452l-10.23 3.928c-4.28 1.642-6.932 4.267-10.008 7.93a32.207 32.207 0 0 0-3.917 5.895 38.149 38.149 0 0 0-2.747 6.873 44.442 44.442 0 0 0-1.516 7.634 46.221 46.221 0 0 0 .19 7.822 34.944 34.944 0 0 0 1.186 6.903z" data-name="Контур 1292"/><path d="M83.662 102.338a24.621 24.621 0 0 1-8.622 6.245C70.125 110.47 64 109.886 64 109.886s-.89.214-.592.97a1.634 1.634 0 0 0 1.29.85s6.362 1.201 11.278-.686 8.385-6.86 8.385-6.86.687-.98.27-1.65a.6.6 0 0 0-.97-.172z" data-name="Контур 1296"/><path d="M122.027 121.148a18.189 18.189 0 0 1-.915 1.979c-1.543 2.956-5.155 9.298-12.326 12.05-8.776 3.37-20.159-1.687-20.159-1.687l-.443-.151a6.366 6.366 0 0 0-.699-.26 12.622 12.622 0 0 0-2.066-.505 2.719 2.719 0 0 0-1.413.063 1.476 1.476 0 0 0-.693.398 1.174 1.174 0 0 0-.34.722c-.152 2.275 3.333 3.693 3.333 3.693s14.594 6.91 24.54 3.093 15.247-18.361 15.247-18.361 1.851-4.574-.183-5.238-3.883 4.204-3.883 4.204z" data-name="Контур 1297"/><path d="M128.534 85.113a24.621 24.621 0 0 1-8.622 6.245c-4.915 1.887-11.04 1.303-11.04 1.303s-.89.214-.592.97a1.634 1.634 0 0 0 1.29.85s6.363 1.201 11.278-.686 8.385-6.86 8.385-6.86.687-.98.27-1.65a.6.6 0 0 0-.969-.172z" data-name="Контур 1309"/></g></svg>