<svg xmlns="http://www.w3.org/2000/svg" viewBox="0 0 581.894 591.723"><g fill="#fff" opacity=".42"><path d="M218.899 591.723c-29.564 0-58.213-10.445-85.191-31.047a225.362 225.362 0 0 1-37.189-36.421 323.542 323.542 0 0 1-32.389-48.244 436.086 436.086 0 0 1-26.746-58.472 547.265 547.265 0 0 1-20.178-67.115C5.806 301.718.013 249.973.013 196.635v-23.577a6.668 6.668 0 0 1 0-.867v-.058c.076-2.216.588-7.86 3.645-10.714 3.855-3.6 11.756-2.762 11.756-2.762l60.637.042a231.189 231.189 0 0 1 9.553-41.385 212.9 212.9 0 0 1 13.844-32.629 188.528 188.528 0 0 1 18.333-28.427 166.6 166.6 0 0 1 22.213-23.461 144.042 144.042 0 0 1 25.5-17.71 121.607 121.607 0 0 1 58.43-15.089h97.257a128.015 128.015 0 0 1 56.709 13.369h16.506A125.469 125.469 0 0 1 450.23 26.49a133.322 133.322 0 0 1 23.709 15.379 149.231 149.231 0 0 1 20.664 20.376 165.375 165.375 0 0 1 17.061 24.7 177.967 177.967 0 0 1 12.854 28.34 189.263 189.263 0 0 1 9.867 43.746l18.8.015s13.2-.775 20.3 2.879l5.479 5.471a22.612 22.612 0 0 1 2.885 10.755l.047.013v18.474c0 53.337-5.783 105.083-17.207 153.789a552.423 552.423 0 0 1-20.17 67.115 443.93 443.93 0 0 1-26.732 58.472 322.447 322.447 0 0 1-32.418 48.244 225.7 225.7 0 0 1-37.158 36.421c-26.992 20.6-55.658 31.047-85.2 31.047zm-188.9-385.608c1.5 39.592 2.855 80.978 11.1 117.011 5.1 22.237 8.4 42.085 15.73 62.128a418.3 418.3 0 0 0 24.775 55.487 306.775 306.775 0 0 0 30.025 45.781c10.848 13.541 22.447 29.617 34.477 39.022 25.018 19.559 51.6 29.467 78.965 29.467h133.582c27.4 0 53.977-9.908 78.992-29.467 12.037-9.393 23.615-25.471 34.475-39.022a306.72 306.72 0 0 0 30.029-45.781 424.2 424.2 0 0 0 24.781-55.487c7.324-20.043 12.482-41.494 17.58-63.719 8.154-35.626 11.678-120.677 11.678-120.677v-7.3l-82.992-.07c.492 2.344 1.139 7.117-.371 10.311-2.086 4.373-3.836 5.781-8.227 5.781s-6.988-.893-9.33-5.781c-1.381-2.934-1.109-7.3-.654-10.328l-359.8-.307c.549 3.532 1.16 7.069-.451 10.839-2.5 5.771-4.781 6.566-9.934 6.566s-7.979-1.945-10.633-6.566c-2.059-3.544-.947-8.663-.328-10.856L29.8 193.11c-.019 4.348.038 8.713.202 13.005zm487.375-47.1c-1.209-10.948-3.1-23.918-5.717-31.537-3.244-9.383-6.537-18.442-11.223-26.911a157.4 157.4 0 0 0-15.793-23.427 140.877 140.877 0 0 0-19.152-19.344 124.713 124.713 0 0 0-21.992-14.594c-13.635-7.055-25.969-11.973-40.182-13.253 1.109.931 2.271 1.88 3.381 2.849a165.866 165.866 0 0 1 22.221 23.461 190.022 190.022 0 0 1 18.318 28.425 213.326 213.326 0 0 1 13.855 32.629 230.914 230.914 0 0 1 9.58 41.67zm-64.93-.046c-1.295-10.27-2.99-20.8-5.209-27.611-3.488-10.812-7.012-21.235-12.027-30.983A183.181 183.181 0 0 0 418.202 73.4a155.473 155.473 0 0 0-20.6-22.257 132.369 132.369 0 0 0-23.621-16.807 235.207 235.207 0 0 0-8.967-4.718h-61.033c-17.473 0-30.48 5.332-46.432 13.585a124.313 124.313 0 0 0-21.986 14.594 140.2 140.2 0 0 0-19.174 19.344 158.108 158.108 0 0 0-15.785 23.427c-4.678 8.469-6.77 16.852-10.021 26.234-3.459 9.976-5 20.915-5.934 31.976zm-286.955-.206a190.91 190.91 0 0 1 9.834-43.482 178.894 178.894 0 0 1 12.867-28.34 165.578 165.578 0 0 1 17.055-24.7 148.651 148.651 0 0 1 20.674-20.376 133.3 133.3 0 0 1 23.715-15.379 122.58 122.58 0 0 1 19.189-7.791h-44.9c-18.781 0-32.76 6.125-49.934 15.636a133.087 133.087 0 0 0-23.623 16.808 157.4 157.4 0 0 0-20.6 22.257 182.324 182.324 0 0 0-17 26.975c-5.023 9.748-7.279 19.4-10.781 30.2a146.482 146.482 0 0 0-5.6 28.142z" data-name="Контур 1292"/><path d="M244.47 319.578s-20.573 11.223-42.144 11.223-44.14-11.223-44.14-11.223-3.722-.488-3.7 2.84 3.7 5.149 3.7 5.149 22.569 13.934 44.14 13.934 42.144-13.934 42.144-13.934 4.063-2.736 3.454-5.913a2.472 2.472 0 0 0-3.454-2.076z" data-name="Контур 1296"/><path d="M363.593 447.868a74.519 74.519 0 0 1-6.4 6.229c-10.244 9.041-33.369 28-64.839 28-38.5 0-74.626-36.047-74.626-36.047l-1.474-1.235a26.08 26.08 0 0 0-2.292-2.02 51.71 51.71 0 0 0-7.16-4.964c-3.164-1.7-4.492-1.813-5.5-1.832a6.047 6.047 0 0 0-3.231.5 4.81 4.81 0 0 0-2.361 2.261c-3.926 8.481 7.324 19.019 7.324 19.019s45.672 47.841 89.319 47.841 85.275-47.842 85.275-47.842 13.8-14.777 6.989-20.3-21.024 10.39-21.024 10.39z" data-name="Контур 1297"/><path d="M441.386 319.578s-20.573 11.223-42.144 11.223-44.14-11.223-44.14-11.223-3.722-.488-3.7 2.84 3.7 5.149 3.7 5.149 22.569 13.934 44.14 13.934 42.144-13.934 42.144-13.934 4.063-2.736 3.454-5.913a2.472 2.472 0 0 0-3.454-2.076z" data-name="Контур 1309"/></g></svg>