<svg xmlns="http://www.w3.org/2000/svg" viewBox="0 0 136.119 136.817"><g fill="#fff" opacity=".5"><path d="M33.234 107.513A23.91 23.91 0 0 1 22.807 95.92 38.88 38.88 0 0 1 20.1 87.39a55.549 55.549 0 0 1-1.022-9.944 75.035 75.035 0 0 1 .659-11.038 94.6 94.6 0 0 1 2.353-11.82 116.1 116.1 0 0 1 9.803-24.738l.287-.54 1.615-3.037.07-.131.004-.01a2.867 2.867 0 0 1 1.419-1.331 3.028 3.028 0 0 1 2.007.53l9.203 4.9a40 40 0 0 1 4.793-5.512 36.542 36.542 0 0 1 4.735-3.837 32.759 32.759 0 0 1 5.078-2.836 28.691 28.691 0 0 1 5.267-1.769 24.767 24.767 0 0 1 5.302-.63 20.919 20.919 0 0 1 10.09 2.426l14.768 7.852a22.032 22.032 0 0 1 7.532 6.61l2.506 1.332a21.589 21.589 0 0 1 7.417 6.5 23.028 23.028 0 0 1 2.357 4.248 25.724 25.724 0 0 1 1.498 4.76 28.338 28.338 0 0 1 .591 5.125 30.373 30.373 0 0 1-.331 5.343 32.9 32.9 0 0 1-2.03 7.44l2.85 1.516a8.61 8.61 0 0 1 2.85 2.082l.39 1.273a3.882 3.882 0 0 1-.433 1.865l.008.004-1.491 2.805A116.1 116.1 0 0 1 105.22 98.79a95.3 95.3 0 0 1-8.482 8.56 75.419 75.419 0 0 1-8.782 6.72 55.478 55.478 0 0 1-8.817 4.712 38.761 38.761 0 0 1-8.585 2.528 23.913 23.913 0 0 1-15.442-2.163zm2.45-73.797c-2.966 6.133-6.1 12.527-7.757 18.663a87.027 87.027 0 0 0-2.632 10.7 72.257 72.257 0 0 0-.715 10.426 52.7 52.7 0 0 0 .864 9.375c.555 2.932 1.015 6.308 2.083 8.707a21.853 21.853 0 0 0 9.612 10.85L57.42 113.22a21.853 21.853 0 0 0 14.372 1.903c2.585-.455 5.642-1.96 8.385-3.141a52.958 52.958 0 0 0 8.255-4.527 72.64 72.64 0 0 0 8.242-6.423 91.918 91.918 0 0 0 7.812-8.256c4.112-4.752 11.516-17.379 11.516-17.379l.59-1.108-12.595-6.71a3.18 3.18 0 0 1-.89 1.534c-.667.497-1.05.567-1.716.213a1.481 1.481 0 0 1-.946-1.628 3.382 3.382 0 0 1 .732-1.623l-54.6-29.092a3.2 3.2 0 0 1-.946 1.609 1.49 1.49 0 0 1-2.037.196 1.879 1.879 0 0 1-1.085-1.856 2.625 2.625 0 0 1 .827-1.675l-6.627-3.53c-.36.66-.704 1.323-1.025 1.988zm77.806 32.196a24.626 24.626 0 0 0 2.146-10.243 27.04 27.04 0 0 0-.508-4.832 23.961 23.961 0 0 0-1.348-4.484 21.314 21.314 0 0 0-2.159-3.99 18.3 18.3 0 0 0-5.032-5.258c.096.233.194.47.285.707a28.579 28.579 0 0 1 1.479 5.355 32.647 32.647 0 0 1 .487 5.795 36.549 36.549 0 0 1-.532 6.072 39.822 39.822 0 0 1-1.908 7.101zm-9.859-5.251a29.146 29.146 0 0 0 1.44-4.612 35.059 35.059 0 0 0 .674-5.676 31.311 31.311 0 0 0-.402-5.467 26.947 26.947 0 0 0-1.332-5.043 22.842 22.842 0 0 0-2.232-4.46c-.325-.502-.65-.98-.98-1.44l-9.266-4.927c-2.65-1.408-5.057-1.65-8.145-1.685a21.286 21.286 0 0 0-4.517.441 24.071 24.071 0 0 0-4.47 1.39 26.965 26.965 0 0 0-4.29 2.282 27.508 27.508 0 0 0-3.643 3.173 22.917 22.917 0 0 0-3.483 4.377zm-43.55-23.196a32.784 32.784 0 0 1 5.003-5.808 30.885 30.885 0 0 1 4.242-3.263 28.274 28.274 0 0 1 4.585-2.373 25.631 25.631 0 0 1 4.778-1.423 23.05 23.05 0 0 1 4.843-.42 21.222 21.222 0 0 1 3.543.366l-6.817-3.625c-2.851-1.516-5.469-1.715-8.842-1.656a22.7 22.7 0 0 0-4.945.644 26.879 26.879 0 0 0-4.924 1.716 31.325 31.325 0 0 0-4.76 2.723 32.625 32.625 0 0 0-4.072 3.717 24.633 24.633 0 0 0-3.122 3.82z" data-name="Контур 1292"/><path d="M59.092 68.26a17.346 17.346 0 0 1-7.309-1.7 19.933 19.933 0 0 1-5.796-5.269s-.526-.374-.79.133a1.151 1.151 0 0 0 .145 1.08s2.302 3.939 5.577 5.68a14.958 14.958 0 0 0 7.53 1.285s.839-.086 1.002-.619a.425.425 0 0 0-.359-.59z" data-name="Контур 1296"/><path d="M66.818 97.353a12.814 12.814 0 0 1-1.474.43c-2.284.546-7.327 1.556-12.106-.985-5.845-3.108-8.42-11.5-8.42-11.5l-.125-.306a4.484 4.484 0 0 0-.185-.49 8.892 8.892 0 0 0-.686-1.333 1.915 1.915 0 0 0-.686-.722 1.04 1.04 0 0 0-.532-.184.827.827 0 0 0-.541.153c-1.28.97-.423 3.479-.423 3.479s3.069 10.95 9.699 14.475 16.81-.38 16.81-.38 3.288-1.129 2.698-2.518-4.029-.119-4.029-.119z" data-name="Контур 1297"/><path d="M88.99 84.157a17.346 17.346 0 0 1-7.309-1.7 19.933 19.933 0 0 1-5.796-5.268s-.526-.375-.79.132a1.151 1.151 0 0 0 .146 1.08s2.302 3.939 5.577 5.68a14.958 14.958 0 0 0 7.53 1.286s.838-.087 1.001-.62a.425.425 0 0 0-.358-.59z" data-name="Контур 1309"/></g></svg>