<svg xmlns="http://www.w3.org/2000/svg" viewBox="0 0 322.841 325.728"><g fill="#fff" opacity=".79"><path d="M92.644 278.758c-12.507-3.823-23.283-11.952-32.035-24.163a100.063 100.063 0 0 1-11.024-20.225 142.928 142.928 0 0 1-7.469-24.61 193.256 193.256 0 0 1-3.749-28.207 243.643 243.643 0 0 1 .142-31.014 298.747 298.747 0 0 1 12.617-67.314l.46-1.505 2.591-8.474s.036-.139.112-.367l.008-.024c.32-.927 1.267-3.25 2.93-4.063 2.1-1.025 5.33.352 5.33.352l25.657 7.864a102.906 102.906 0 0 1 9.402-16.28 94.11 94.11 0 0 1 10.075-12.02 84.4 84.4 0 0 1 11.437-9.657 73.9 73.9 0 0 1 12.438-7.055 63.765 63.765 0 0 1 13.087-4.195 53.834 53.834 0 0 1 26.682 1.174l41.162 12.585a56.694 56.694 0 0 1 22.273 12.997l6.981 2.134a55.569 55.569 0 0 1 21.93 12.777 59.341 59.341 0 0 1 8.042 9.575 66.148 66.148 0 0 1 6.115 11.3 72.724 72.724 0 0 1 4.01 12.656 78.082 78.082 0 0 1 1.784 13.66 84.629 84.629 0 0 1-1.484 19.792l7.944 2.435s5.691 1.381 8.226 3.848l1.61 3.024a10 10 0 0 1-.175 4.924l.018.012-2.39 7.818a298.858 298.858 0 0 1-27.177 62.864 245.73 245.73 0 0 1-17.223 25.791 194.207 194.207 0 0 1-18.883 21.288 142.786 142.786 0 0 1-19.956 16.225 99.782 99.782 0 0 1-20.446 10.604c-14.091 5.227-27.569 5.94-40.075 2.117zM62.592 91.115c-4.484 16.952-9.262 34.644-10.433 50.962-.73 10.068-1.893 18.898-1.393 28.331a186.03 186.03 0 0 0 3.312 26.69 135.515 135.515 0 0 0 6.786 23.262c2.838 7.135 5.664 15.439 9.538 20.975 8.058 11.515 18.026 19.148 29.61 22.69l56.537 17.285c11.593 3.544 24.122 2.79 37.243-2.25 6.308-2.419 13.291-7.724 19.642-12.054a136.3 136.3 0 0 0 18.632-15.49 186.8 186.8 0 0 0 17.67-20.277c5.693-7.534 10.647-15.948 15.681-24.694 8.061-14.023 20.561-49.561 20.561-49.561l.947-3.098-35.116-10.769a8.185 8.185 0 0 1-1.494 4.315c-1.444 1.583-2.374 1.95-4.232 1.382s-2.844-1.283-3.195-3.653a8.689 8.689 0 0 1 1.05-4.458L91.708 94.02a8.232 8.232 0 0 1-1.601 4.53c-1.799 2.12-2.87 2.161-5.049 1.495s-3.125-1.856-3.651-4.155c-.41-1.766.713-3.791 1.263-4.633L64.2 85.59a126.337 126.337 0 0 0-1.607 5.524zm212.375 43.134c.901-4.792 1.788-10.523 1.647-14.092a74.954 74.954 0 0 0-1.256-12.838 69.737 69.737 0 0 0-3.655-11.96 61.781 61.781 0 0 0-5.607-10.666 54.862 54.862 0 0 0-7.415-9.021c-4.859-4.75-9.448-8.43-15.295-10.81.357.541.713 1.089 1.065 1.645a73.561 73.561 0 0 1 6.367 12.804 84.07 84.07 0 0 1 4.079 14.402 94.132 94.132 0 0 1 1.637 15.6 102.335 102.335 0 0 1-1.334 18.878zm-27.486-8.425a75.116 75.116 0 0 0 1.374-12.358 90.471 90.471 0 0 0-1.087-14.671 80.731 80.731 0 0 0-3.702-13.615 69.314 69.314 0 0 0-5.842-12.087 58.78 58.78 0 0 0-7.827-10.172 96.581 96.581 0 0 0-3.185-3.157l-25.83-7.897c-7.392-2.26-13.587-1.687-21.407-.258a54.805 54.805 0 0 0-11.193 3.332 61.948 61.948 0 0 0-10.612 5.708 69.439 69.439 0 0 0-9.718 7.87c-3.075 2.98-5.05 6.256-7.643 9.805a59 59 0 0 0-6.646 12.765zM126.065 88.608a84.4 84.4 0 0 1 9.788-17.13 79.453 79.453 0 0 1 9.118-10.328 72.864 72.864 0 0 1 10.415-8.245 66.056 66.056 0 0 1 11.376-5.952 59.4 59.4 0 0 1 12.031-3.439 54.7 54.7 0 0 1 9.131-.814l-19.006-5.81c-7.946-2.43-14.659-1.647-23.15.158a58.374 58.374 0 0 0-12.178 4.055 69.177 69.177 0 0 0-11.599 6.754 80.759 80.759 0 0 0-10.688 9.216c-3.386 3.476-5.59 7.268-8.46 11.39a63.55 63.55 0 0 0-6.012 11.185z" data-name="Контур 1292"/><path d="M138.68 166.89s-10.154 2.09-19.289-.702-17.229-10.463-17.229-10.463-1.512-.688-1.93.724a2.962 2.962 0 0 0 .896 2.658s7.75 8.815 16.88 11.606 19.64-.444 19.64-.444 2.073-.632 2.226-2.056a1.094 1.094 0 0 0-1.193-1.323z" data-name="Контур 1296"/><path d="M172.498 236.598a32.98 32.98 0 0 1-3.517 1.81c-5.506 2.5-17.745 7.53-31.069 3.458-16.293-4.982-26.92-24.912-26.92-24.912l-.463-.714a11.541 11.541 0 0 0-.708-1.152 22.885 22.885 0 0 0-2.385-3.025 4.929 4.929 0 0 0-2.09-1.487 2.676 2.676 0 0 0-1.432-.205 2.129 2.129 0 0 0-1.292.651c-2.76 3.08.64 8.997.64 8.997s13.139 26.155 31.611 31.803 42.282-9.214 42.282-9.214 7.753-4.468 5.585-7.689-10.242 1.68-10.242 1.68z" data-name="Контур 1297"/><path d="M222.02 192.37s-10.154 2.09-19.289-.703-17.229-10.462-17.229-10.462-1.512-.688-1.93.724a2.962 2.962 0 0 0 .896 2.657s7.75 8.816 16.88 11.607 19.64-.445 19.64-.445 2.073-.631 2.226-2.056a1.094 1.094 0 0 0-1.193-1.322z" data-name="Контур 1309"/></g></svg>