<svg xmlns="http://www.w3.org/2000/svg" viewBox="0 0 427.243 434.458"><g fill="#fff"><path d="M160.718 434.458c-21.7 0-42.739-7.669-62.553-22.8a166.087 166.087 0 0 1-27.3-26.741 237.663 237.663 0 0 1-23.785-35.421 320.4 320.4 0 0 1-19.628-42.933 404.31 404.31 0 0 1-14.818-49.277A495.834 495.834 0 0 1 .004 144.371v-17.313s-.012-.237 0-.637v-.042c.06-1.627.436-5.771 2.68-7.867 2.831-2.644 8.629-2.028 8.629-2.028l44.519.032a170.213 170.213 0 0 1 7.018-30.388 155.676 155.676 0 0 1 10.163-23.956 139.614 139.614 0 0 1 13.453-20.871 122.684 122.684 0 0 1 16.314-17.225 105.623 105.623 0 0 1 18.727-13 89.314 89.314 0 0 1 42.9-11.078h71.407a94.059 94.059 0 0 1 41.647 9.816h12.121a92.167 92.167 0 0 1 40.988 9.635 98.441 98.441 0 0 1 17.412 11.293 109.8 109.8 0 0 1 15.178 14.961 120.672 120.672 0 0 1 12.51 18.133 130.182 130.182 0 0 1 9.459 20.807 140.319 140.319 0 0 1 7.237 32.121l13.788.01s9.7-.568 14.921 2.115l4.018 4.016a16.643 16.643 0 0 1 2.113 7.9l.038.01v13.564a495.78 495.78 0 0 1-12.628 112.915 406.393 406.393 0 0 1-14.818 49.277 322.278 322.278 0 0 1-19.627 42.933 236.8 236.8 0 0 1-23.794 35.421 165.656 165.656 0 0 1-27.295 26.733c-19.819 15.127-40.859 22.8-62.557 22.8zm-138.7-283.124c1.105 29.069 2.11 59.456 8.167 85.913 3.729 16.326 6.159 30.9 11.534 45.616a308.171 308.171 0 0 0 18.2 40.739 224.878 224.878 0 0 0 22.048 33.614c7.967 9.942 16.473 21.747 25.3 28.651 18.373 14.361 37.888 21.636 57.989 21.636h98.075c20.115 0 39.627-7.275 58-21.636 8.832-6.9 17.343-18.7 25.314-28.651a226.142 226.142 0 0 0 22.049-33.614 309.827 309.827 0 0 0 18.2-40.739c5.379-14.716 9.16-30.466 12.9-46.784 5.99-26.157 8.58-88.6 8.58-88.6v-5.364l-60.931-.052c.346 1.722.829 5.226-.281 7.571-1.522 3.211-2.824 4.245-6.039 4.245s-5.135-.655-6.847-4.245c-1.023-2.154-.825-5.361-.493-7.582l-264.164-.225c.4 2.594.854 5.19-.338 7.958-1.818 4.237-3.5 4.821-7.283 4.821s-5.861-1.428-7.814-4.821c-1.5-2.6-.7-6.361-.24-7.971l-32.058-.027c-.013 3.192.018 6.397.137 9.547zm357.864-34.576c-.89-8.039-2.271-17.562-4.217-23.156-2.379-6.889-4.795-13.54-8.229-19.758a115.374 115.374 0 0 0-11.594-17.2 102.623 102.623 0 0 0-14.071-14.2 91.135 91.135 0 0 0-16.142-10.716c-10.014-5.179-19.076-8.79-29.51-9.731.83.683 1.669 1.381 2.491 2.092a121.919 121.919 0 0 1 16.309 17.225 139.612 139.612 0 0 1 13.46 20.871 155.968 155.968 0 0 1 10.164 23.956 169.985 169.985 0 0 1 7.04 30.6zm-47.7-.034c-.938-7.541-2.188-15.273-3.808-20.273-2.565-7.938-5.159-15.592-8.845-22.749a133.97 133.97 0 0 0-12.473-19.806 114.841 114.841 0 0 0-15.132-16.342 97.559 97.559 0 0 0-17.355-12.341 156.319 156.319 0 0 0-6.585-3.464h-44.8c-12.824 0-22.374 3.914-34.088 9.974a91 91 0 0 0-16.147 10.716 103.255 103.255 0 0 0-14.066 14.2 116.076 116.076 0 0 0-11.6 17.2c-3.432 6.218-4.973 12.372-7.367 19.261-2.523 7.324-3.669 15.356-4.356 23.477zm-210.681-.151a139.889 139.889 0 0 1 7.223-31.926 131.7 131.7 0 0 1 9.448-20.807 120.814 120.814 0 0 1 12.53-18.133 109.5 109.5 0 0 1 15.157-14.961 98.522 98.522 0 0 1 17.42-11.292 90.64 90.64 0 0 1 14.087-5.721h-32.962c-13.788 0-24.059 4.5-36.656 11.481A96.98 96.98 0 0 0 110.4 37.555a114.574 114.574 0 0 0-15.125 16.342 133.483 133.483 0 0 0-12.488 19.806c-3.691 7.157-5.349 14.243-7.9 22.173a104.939 104.939 0 0 0-4.108 20.661z" data-name="Контур 1292"/><path d="M179.496 234.638s-15.105 8.245-30.943 8.245-32.41-8.245-32.41-8.245-2.733-.358-2.713 2.085 2.713 3.781 2.713 3.781 16.572 10.234 32.41 10.234 30.943-10.23 30.943-10.23 2.982-2.009 2.536-4.342a1.815 1.815 0 0 0-2.536-1.528z" data-name="Контур 1296"/><path d="M266.96 328.839a54.714 54.714 0 0 1-4.7 4.573c-7.522 6.638-24.5 20.555-47.606 20.555-28.266 0-54.792-26.467-54.792-26.467l-1.083-.907a19.147 19.147 0 0 0-1.683-1.483 37.967 37.967 0 0 0-5.257-3.644c-2.323-1.247-3.3-1.331-4.036-1.345a4.44 4.44 0 0 0-2.373.37 3.532 3.532 0 0 0-1.733 1.66c-2.883 6.227 5.378 13.964 5.378 13.964s33.531 35.124 65.578 35.124 62.612-35.127 62.612-35.127 10.132-10.849 5.131-14.907-15.436 7.634-15.436 7.634z" data-name="Контур 1297"/><path d="M324.077 234.638s-15.105 8.245-30.943 8.245-32.41-8.245-32.41-8.245-2.733-.358-2.713 2.085 2.713 3.781 2.713 3.781 16.572 10.234 32.41 10.234 30.943-10.23 30.943-10.23 2.982-2.009 2.536-4.342a1.815 1.815 0 0 0-2.536-1.528z" data-name="Контур 1309"/></g></svg>