<svg xmlns="http://www.w3.org/2000/svg" viewBox="0 0 168.957 170.804"><g fill="#fff" opacity=".8"><path d="M82.29 159.696c-7.054 1.5-14.426.46-21.914-3.09a55.172 55.172 0 0 1-10.725-6.809 78.8 78.8 0 0 1-10.184-9.873 106.422 106.422 0 0 1-9.35-12.604 134.3 134.3 0 0 1-8.224-15A164.794 164.794 0 0 1 9.981 76.478l-.18-.849-1.017-4.78-.044-.207-.003-.014a4.069 4.069 0 0 1 .327-2.743 4.3 4.3 0 0 1 2.666-1.256l14.48-3.066a56.814 56.814 0 0 1 .182-10.365 51.9 51.9 0 0 1 1.648-8.492 46.583 46.583 0 0 1 2.934-7.717 40.76 40.76 0 0 1 4.114-6.728 35.141 35.141 0 0 1 5.191-5.523 29.69 29.69 0 0 1 13.185-6.568l23.22-4.935a31.266 31.266 0 0 1 14.221.313l3.94-.838a30.643 30.643 0 0 1 13.994.297 32.689 32.689 0 0 1 6.44 2.47 36.554 36.554 0 0 1 5.973 3.815 40.244 40.244 0 0 1 5.317 5.032 43.129 43.129 0 0 1 4.515 6.112 46.669 46.669 0 0 1 4.575 9.944l4.483-.953s3.115-.855 4.997-.346l1.584 1.028a5.5 5.5 0 0 1 1.23 2.422l.014-.003.937 4.41a164.8 164.8 0 0 1 3.696 37.59 135.341 135.341 0 0 1-1.411 17.049 107 107 0 0 1-3.416 15.317 78.731 78.731 0 0 1-5.284 13.167 55.022 55.022 0 0 1-7.027 10.582c-5.399 6.29-11.71 10.236-18.766 11.736zM17.623 77.217c2.37 9.377 4.794 19.188 8.594 27.373 2.34 5.05 4.14 9.621 6.902 14.035a102.457 102.457 0 0 0 8.735 11.99 74.751 74.751 0 0 0 9.492 9.405c3.278 2.682 6.861 5.932 10.21 7.568 6.966 3.4 13.815 4.417 20.35 3.028l31.887-6.778c6.542-1.39 12.383-5.104 17.364-11.044 2.397-2.854 4.347-7.28 6.251-11.067a75.249 75.249 0 0 0 4.847-12.454 103.222 103.222 0 0 0 3.101-14.504 130.55 130.55 0 0 0 .962-16.105c.137-8.924-3.334-29.405-3.334-29.405l-.37-1.744-19.82 4.196a4.508 4.508 0 0 1 .433 2.48c-.273 1.15-.624 1.576-1.67 1.799a2.1 2.1 0 0 1-2.52-.908 4.8 4.8 0 0 1-.685-2.431L32.441 70.835a4.537 4.537 0 0 1 .438 2.611 2.115 2.115 0 0 1-2.036 2.069 2.667 2.667 0 0 1-2.876-1.025 3.72 3.72 0 0 1-.63-2.575l-10.426 2.207c.223 1.039.455 2.076.712 3.095zm113.976-35.983a34.968 34.968 0 0 0-7.013-13.094 38.349 38.349 0 0 0-4.96-4.791 33.991 33.991 0 0 0-5.557-3.647 30.248 30.248 0 0 0-5.99-2.368 25.977 25.977 0 0 0-10.267-1.125c.316.165.638.334.954.513a40.536 40.536 0 0 1 6.495 4.473 46.393 46.393 0 0 1 5.819 5.856 51.811 51.811 0 0 1 4.96 7.088 56.51 56.51 0 0 1 4.406 9.462zm-15.51 3.286a41.477 41.477 0 0 0-2.641-6.329A49.851 49.851 0 0 0 109 31.405a44.5 44.5 0 0 0-5.425-5.578 38.331 38.331 0 0 0-6.05-4.268 32.459 32.459 0 0 0-6.496-2.81 49.12 49.12 0 0 0-2.38-.672l-14.574 3.097c-4.17.887-7.004 2.818-10.394 5.6a30.227 30.227 0 0 0-4.51 4.6 34.218 34.218 0 0 0-3.59 5.59 38.274 38.274 0 0 0-2.584 6.396 39 39 0 0 0-1.067 6.77 32.556 32.556 0 0 0 .207 7.93zM47.57 59.033a46.508 46.508 0 0 1 .141-10.88 43.812 43.812 0 0 1 1.636-7.42 40.134 40.134 0 0 1 2.82-6.762 36.387 36.387 0 0 1 3.896-5.913 32.719 32.719 0 0 1 4.883-4.876 30.128 30.128 0 0 1 4.186-2.832l-10.72 2.278c-4.482.953-7.512 3.13-11.124 6.267a32.207 32.207 0 0 0-4.79 5.21 38.149 38.149 0 0 0-3.79 6.359 44.442 44.442 0 0 0-2.69 7.303 46.221 46.221 0 0 0-1.036 7.756 34.944 34.944 0 0 0 .091 7.003z" data-name="Контур 1292"/><path d="M74.586 93.423a24.621 24.621 0 0 1-9.493 4.82c-5.15 1.094-11.108-.44-11.108-.44s-.913.071-.736.864a1.634 1.634 0 0 0 1.141 1.042s6.096 2.182 11.246 1.087 9.355-5.464 9.355-5.464.832-.86.525-1.587a.6.6 0 0 0-.93-.322z" data-name="Контур 1296"/><path d="M109.536 118.003a18.189 18.189 0 0 1-1.213 1.812c-1.986 2.678-6.546 8.377-14.06 9.974-9.194 1.954-19.646-4.82-19.646-4.82l-.414-.22a6.366 6.366 0 0 0-.65-.365 12.622 12.622 0 0 0-1.962-.823 2.719 2.719 0 0 0-1.405-.158 1.476 1.476 0 0 0-.746.285 1.174 1.174 0 0 0-.449.66c-.507 2.223 2.714 4.168 2.714 4.168s13.333 9.109 23.754 6.894 17.932-15.75 17.932-15.75 2.543-4.228.638-5.202-4.493 3.545-4.493 3.545z" data-name="Контур 1297"/><path d="M121.6 83.43a24.621 24.621 0 0 1-9.492 4.819c-5.15 1.095-11.108-.44-11.108-.44s-.913.072-.737.865a1.634 1.634 0 0 0 1.142 1.042s6.096 2.182 11.246 1.087 9.355-5.465 9.355-5.465.832-.86.525-1.586a.6.6 0 0 0-.93-.322z" data-name="Контур 1309"/></g></svg>