<svg xmlns="http://www.w3.org/2000/svg" viewBox="0 0 127.293 128.531"><g fill="#fff" opacity=".53"><path d="M37.901 112.152a24.752 24.752 0 0 1-13.216-9.266 40.278 40.278 0 0 1-4.714-7.975 57.684 57.684 0 0 1-3.346-9.788 77.654 77.654 0 0 1-1.901-11.285 97.918 97.918 0 0 1-.376-12.47 120.197 120.197 0 0 1 4.131-27.233l.164-.611.923-3.442.04-.149.002-.01a2.97 2.97 0 0 1 1.12-1.674 3.138 3.138 0 0 1 2.15.067L33.3 31.12a41.335 41.335 0 0 1 3.55-6.675 37.764 37.764 0 0 1 3.885-4.972 33.811 33.811 0 0 1 4.461-4.042 29.704 29.704 0 0 1 4.9-3.009 25.618 25.618 0 0 1 5.203-1.869 21.65 21.65 0 0 1 10.742.1l16.721 4.483a22.808 22.808 0 0 1 9.14 4.914l2.839.761a22.35 22.35 0 0 1 8.993 4.83 23.834 23.834 0 0 1 3.367 3.736 26.548 26.548 0 0 1 2.615 4.457 29.213 29.213 0 0 1 1.79 5.035 31.504 31.504 0 0 1 .908 5.467 34.041 34.041 0 0 1-.321 7.976l3.228.865a8.916 8.916 0 0 1 3.362 1.433l.688 1.193a4.028 4.028 0 0 1 0 1.981l.008.003-.852 3.176a120.197 120.197 0 0 1-10.046 25.647 98.438 98.438 0 0 1-6.563 10.609 78.032 78.032 0 0 1-7.292 8.82 57.392 57.392 0 0 1-7.796 6.8 40.15 40.15 0 0 1-8.069 4.55 24.757 24.757 0 0 1-16.08 1.41zM23.2 37.146c-1.564 6.878-3.238 14.055-3.481 20.631a90.223 90.223 0 0 0-.164 11.405 74.777 74.777 0 0 0 1.704 10.682 54.506 54.506 0 0 0 3.053 9.255c1.241 2.829 2.492 6.126 4.127 8.298a22.625 22.625 0 0 0 12.22 8.707l22.966 6.158a22.62 22.62 0 0 0 14.94-1.426c2.502-1.06 5.23-3.29 7.726-5.12a54.78 54.78 0 0 0 7.274-6.486 75.157 75.157 0 0 0 6.818-8.397 94.728 94.728 0 0 0 5.958-10.145c3.045-5.75 7.573-20.209 7.573-20.209l.337-1.256-14.266-3.838a3.285 3.285 0 0 1-.54 1.755c-.559.656-.928.817-1.681.615a1.533 1.533 0 0 1-1.336-1.424 3.494 3.494 0 0 1 .36-1.806L34.944 37.907a3.3 3.3 0 0 1-.579 1.842 1.542 1.542 0 0 1-2.009.672 1.946 1.946 0 0 1-1.527-1.62 2.725 2.725 0 0 1 .443-1.882l-7.504-2.02c-.205.75-.4 1.503-.57 2.247zm85.97 14.371a25.463 25.463 0 0 0-.221-10.828 28.03 28.03 0 0 0-1.637-4.756 24.816 24.816 0 0 0-2.402-4.21 22.093 22.093 0 0 0-3.107-3.524 18.942 18.942 0 0 0-6.298-4.132c.15.212.3.427.448.645a29.593 29.593 0 0 1 2.738 5.057 33.78 33.78 0 0 1 1.842 5.733 37.76 37.76 0 0 1 .875 6.247 41.18 41.18 0 0 1-.272 7.607zm-11.167-3.002a30.04 30.04 0 0 0 .38-4.986 36.233 36.233 0 0 0-.643-5.882 32.336 32.336 0 0 0-1.677-5.42 27.81 27.81 0 0 0-2.518-4.776 23.65 23.65 0 0 0-3.289-3.98c-.445-.43-.883-.838-1.328-1.226l-10.491-2.813c-3.003-.805-5.486-.488-8.61.195a22.093 22.093 0 0 0-4.453 1.499 24.923 24.923 0 0 0-4.185 2.443 27.96 27.96 0 0 0-3.796 3.3 28.535 28.535 0 0 0-2.935 4.047 23.742 23.742 0 0 0-2.494 5.224zM48.679 35.252a33.866 33.866 0 0 1 3.694-7.022 32.014 32.014 0 0 1 3.52-4.28 29.223 29.223 0 0 1 4.073-3.463 26.617 26.617 0 0 1 4.489-2.552 23.935 23.935 0 0 1 4.788-1.55 21.996 21.996 0 0 1 3.658-.456l-7.718-2.07c-3.23-.865-5.915-.457-9.305.387a23.463 23.463 0 0 0-4.837 1.802 27.803 27.803 0 0 0-4.568 2.876 32.35 32.35 0 0 0-4.166 3.853 33.731 33.731 0 0 0-3.243 4.696 25.428 25.428 0 0 0-2.263 4.579z" data-name="Контур 1292"/><path d="M54.843 66.543a17.955 17.955 0 0 1-7.763-.01 20.633 20.633 0 0 1-7.07-3.968s-.618-.255-.767.318a1.191 1.191 0 0 0 .398 1.055s3.238 3.435 6.946 4.43a15.483 15.483 0 0 0 7.887-.454s.829-.282.868-.857a.44.44 0 0 0-.499-.514z" data-name="Контур 1296"/><path d="M69.41 94.088a13.265 13.265 0 0 1-1.387.777c-2.178 1.082-7.028 3.275-12.439 1.824-6.619-1.774-11.168-9.638-11.168-9.638l-.196-.28a4.642 4.642 0 0 0-.301-.452 9.201 9.201 0 0 0-1.002-1.183 1.982 1.982 0 0 0-.86-.569 1.076 1.076 0 0 0-.58-.062.856.856 0 0 0-.509.278c-1.067 1.276.38 3.607.38 3.607s5.647 10.332 13.152 12.344 16.866-4.295 16.866-4.295 3.054-1.904 2.138-3.169-4.094.818-4.094.818z" data-name="Контур 1297"/><path d="M88.699 75.62a17.955 17.955 0 0 1-7.763-.01 20.633 20.633 0 0 1-7.071-3.967s-.617-.256-.767.317a1.191 1.191 0 0 0 .399 1.055s3.237 3.435 6.946 4.43a15.483 15.483 0 0 0 7.887-.454s.828-.282.867-.857a.44.44 0 0 0-.498-.514z" data-name="Контур 1309"/></g></svg>