<svg xmlns="http://www.w3.org/2000/svg" viewBox="0 0 164.685 165.803"><g fill="#fff"><path d="M44.495 135.625c-5.845-2.48-10.636-6.953-14.243-13.294a48.564 48.564 0 0 1-4.295-10.326A69.296 69.296 0 0 1 23.6 99.743a93.587 93.587 0 0 1-.378-13.811 118.434 118.434 0 0 1 1.643-14.97 145.087 145.087 0 0 1 9.506-31.864l.299-.703 1.681-3.96.073-.172.005-.011a3.579 3.579 0 0 1 1.62-1.813 3.784 3.784 0 0 1 2.556.441l11.989 5.1a49.922 49.922 0 0 1 5.366-7.383 45.679 45.679 0 0 1 5.476-5.292 41.012 41.012 0 0 1 6.012-4.078 35.895 35.895 0 0 1 6.364-2.775 30.96 30.96 0 0 1 6.531-1.358 26.14 26.14 0 0 1 12.825 1.923l19.237 8.167a27.53 27.53 0 0 1 10.097 7.407l3.264 1.386a26.981 26.981 0 0 1 9.94 7.283 28.801 28.801 0 0 1 3.398 5.03 32.218 32.218 0 0 1 2.38 5.767 35.46 35.46 0 0 1 1.295 6.31 37.95 37.95 0 0 1 .17 6.688 41.058 41.058 0 0 1-1.726 9.485l3.714 1.577a10.76 10.76 0 0 1 3.777 2.276l.624 1.542a4.847 4.847 0 0 1-.335 2.37l.01.003-1.551 3.654a145.033 145.033 0 0 1-16.315 28.974 119.13 119.13 0 0 1-9.626 11.58 94.066 94.066 0 0 1-10.199 9.32 69.225 69.225 0 0 1-10.46 6.821 48.427 48.427 0 0 1-10.41 4.083c-7.072 1.807-13.613 1.47-19.462-1.014zm-4.983-92.131c-3.024 7.955-6.23 16.259-7.625 24.078-.862 4.824-1.876 9.028-2.11 13.607a90.21 90.21 0 0 0 .244 13.056 65.764 65.764 0 0 0 2.095 11.577c1.01 3.59 1.951 7.742 3.539 10.611 3.306 5.97 7.731 10.16 13.146 12.46L75.222 140.1c5.42 2.3 11.507 2.571 18.098.804 3.169-.847 6.81-3.054 10.096-4.823a66.225 66.225 0 0 0 9.784-6.533 90.85 90.85 0 0 0 9.56-8.894 114.784 114.784 0 0 0 8.826-11.128c4.604-6.362 12.445-22.887 12.445-22.887l.613-1.445-16.409-6.983a3.963 3.963 0 0 1-.94 2.007c-.778.691-1.246.822-2.114.453a1.851 1.851 0 0 1-1.356-1.926 4.235 4.235 0 0 1 .733-2.1l-71.136-30.27a3.992 3.992 0 0 1-1.002 2.104 1.863 1.863 0 0 1-2.515.465 2.347 2.347 0 0 1-1.551-2.191 3.272 3.272 0 0 1 .847-2.175l-8.633-3.674c-.369.86-.728 1.727-1.056 2.589zm100.36 31.612a30.811 30.811 0 0 0 1.555-12.983 33.698 33.698 0 0 0-1.16-5.96 29.898 29.898 0 0 0-2.164-5.435 26.676 26.676 0 0 0-3.123-4.733 22.872 22.872 0 0 0-6.837-5.996c.145.279.292.559.431.848A35.676 35.676 0 0 1 131 47.353a40.767 40.767 0 0 1 1.24 7.157 45.69 45.69 0 0 1-.001 7.616 49.784 49.784 0 0 1-1.601 9.048zm-12.845-5.463a36.557 36.557 0 0 0 1.292-5.898 43.908 43.908 0 0 0 .22-7.139 39.208 39.208 0 0 0-1.095-6.762 33.703 33.703 0 0 0-2.207-6.133 28.598 28.598 0 0 0-3.264-5.31c-.46-.589-.916-1.15-1.377-1.685l-12.071-5.125c-3.456-1.467-6.475-1.504-10.323-1.212a26.615 26.615 0 0 0-5.576 1.04 30.142 30.142 0 0 0-5.412 2.218 33.698 33.698 0 0 0-5.093 3.306 34.37 34.37 0 0 0-4.188 4.346 28.661 28.661 0 0 0-3.858 5.827zM70.29 45.507a41.012 41.012 0 0 1 5.596-7.774 38.635 38.635 0 0 1 4.926-4.524 35.39 35.39 0 0 1 5.447-3.449 32.06 32.06 0 0 1 5.796-2.296 28.795 28.795 0 0 1 5.983-1.047 26.544 26.544 0 0 1 4.448.07l-8.88-3.77c-3.714-1.577-6.994-1.54-11.187-1.1a28.346 28.346 0 0 0-6.086 1.341 33.584 33.584 0 0 0-5.944 2.672 39.142 39.142 0 0 0-5.629 3.908 40.739 40.739 0 0 0-4.663 5.07 30.792 30.792 0 0 0-3.468 5.095z" data-name="Контур 1292"/><path d="M72.407 83.946a21.675 21.675 0 0 1-9.278-1.321 24.908 24.908 0 0 1-7.788-5.928s-.698-.405-.97.252a1.438 1.438 0 0 0 .299 1.329s3.294 4.654 7.56 6.465 9.506.783 9.506.783 1.034-.2 1.18-.88a.531.531 0 0 0-.51-.7z" data-name="Контур 1296"/><path d="M85.194 119.325a16.009 16.009 0 0 1-1.792.69c-2.785.928-8.947 2.737-15.17.094-7.615-3.233-11.734-13.395-11.734-13.395l-.188-.368a5.603 5.603 0 0 0-.284-.592 11.111 11.111 0 0 0-1-1.584 2.393 2.393 0 0 0-.933-.824 1.3 1.3 0 0 0-.681-.172 1.034 1.034 0 0 0-.657.25c-1.489 1.347-.148 4.376-.148 4.376s5.015 13.298 13.649 16.963 20.883-2.302 20.883-2.302 3.97-1.763 3.086-3.429-5.03.293-5.03.293z" data-name="Контур 1297"/><path d="M111.355 100.48a21.675 21.675 0 0 1-9.278-1.32 24.908 24.908 0 0 1-7.788-5.928s-.698-.405-.97.252a1.438 1.438 0 0 0 .299 1.329s3.294 4.654 7.56 6.465 9.506.783 9.506.783 1.034-.2 1.18-.88a.531.531 0 0 0-.51-.7z" data-name="Контур 1309"/></g></svg>