<svg xmlns="http://www.w3.org/2000/svg" viewBox="0 0 135.735 136.848"><g fill="#fff" opacity=".55"><path d="M73.02 123.826a25.406 25.406 0 0 1-16.565-.296 41.314 41.314 0 0 1-8.59-4.08 59.006 59.006 0 0 1-8.467-6.408 79.614 79.614 0 0 1-8.098-8.512 100.655 100.655 0 0 1-7.48-10.395A123.412 123.412 0 0 1 11.7 68.59l-.211-.615-1.192-3.46-.051-.149-.003-.01a3.058 3.058 0 0 1-.007-2.068 3.219 3.219 0 0 1 1.868-1.172l10.478-3.6a42.435 42.435 0 0 1-.811-7.718 38.78 38.78 0 0 1 .45-6.46 34.713 34.713 0 0 1 1.476-6.002 30.473 30.473 0 0 1 2.443-5.375 26.3 26.3 0 0 1 3.352-4.577 22.232 22.232 0 0 1 9.199-6.083l16.803-5.786a23.414 23.414 0 0 1 10.596-1.064l2.851-.982a22.939 22.939 0 0 1 10.426-1.052 24.47 24.47 0 0 1 5.01 1.247 27.378 27.378 0 0 1 4.785 2.29 30.089 30.089 0 0 1 4.412 3.254 32.3 32.3 0 0 1 3.911 4.13 34.915 34.915 0 0 1 4.305 6.972l3.244-1.117a9.153 9.153 0 0 1 3.683-.712l1.27.62a4.139 4.139 0 0 1 1.138 1.687l.008-.003 1.1 3.192a123.357 123.357 0 0 1 6.176 27.592 101.175 101.175 0 0 1 .507 12.795 80.358 80.358 0 0 1-1.14 11.694 58.934 58.934 0 0 1-2.73 10.262 41.267 41.267 0 0 1-4.255 8.504 25.413 25.413 0 0 1-12.873 10.432zM17.445 68.438c2.615 6.75 5.315 13.823 8.882 19.555a92.411 92.411 0 0 0 6.41 9.798 76.677 76.677 0 0 0 7.584 8.113 55.921 55.921 0 0 0 7.911 6.122c2.68 1.694 5.639 3.783 8.278 4.69a23.222 23.222 0 0 0 15.398.393l23.08-7.946a23.217 23.217 0 0 0 11.893-9.79c1.521-2.339 2.566-5.806 3.635-8.793a56.276 56.276 0 0 0 2.466-9.696 77.186 77.186 0 0 0 .98-11.06 97.4 97.4 0 0 0-.755-12.054c-.71-6.64-5.16-21.544-5.16-21.544l-.434-1.263-14.342 4.925a3.378 3.378 0 0 1 .547 1.804c-.098.88-.318 1.228-1.074 1.488a1.574 1.574 0 0 1-1.951-.446 3.587 3.587 0 0 1-.731-1.744L27.884 62.34a3.394 3.394 0 0 1 .565 1.9 1.583 1.583 0 0 1-1.323 1.724 2 2 0 0 1-2.229-.501 2.8 2.8 0 0 1-.703-1.856l-7.546 2.59c.246.762.514 1.514.797 2.241zm81.407-37.132a26.13 26.13 0 0 0-6.408-9.09 28.766 28.766 0 0 0-4.123-3.108 25.578 25.578 0 0 0-4.46-2.202 22.7 22.7 0 0 0-4.667-1.214 19.442 19.442 0 0 0-7.733.1c.25.095.505.191.755.292a30.361 30.361 0 0 1 5.235 2.732 34.831 34.831 0 0 1 4.858 3.82 38.877 38.877 0 0 1 4.332 4.814 42.376 42.376 0 0 1 4.136 6.629zM87.626 35.16a30.9 30.9 0 0 0-2.538-4.461 37.239 37.239 0 0 0-3.923-4.637 33.315 33.315 0 0 0-4.536-3.65 28.563 28.563 0 0 0-4.885-2.62 24.242 24.242 0 0 0-5.084-1.498 34.85 34.85 0 0 0-1.83-.281l-10.543 3.63c-3.017 1.039-4.947 2.734-7.212 5.108a22.675 22.675 0 0 0-2.932 3.83 25.624 25.624 0 0 0-2.159 4.483 28.7 28.7 0 0 0-1.335 4.987 29.19 29.19 0 0 0-.174 5.13 24.329 24.329 0 0 0 .878 5.876zM38.038 52.196a34.832 34.832 0 0 1-.885-8.098 32.821 32.821 0 0 1 .54-5.662 30.039 30.039 0 0 1 1.478-5.283 27.231 27.231 0 0 1 2.354-4.748 24.492 24.492 0 0 1 3.184-4.068 22.593 22.593 0 0 1 2.852-2.488l-7.754 2.67c-3.245 1.117-5.296 3.007-7.694 5.67a24.13 24.13 0 0 0-3.083 4.31 28.5 28.5 0 0 0-2.235 5.071 33.334 33.334 0 0 0-1.334 5.673 34.672 34.672 0 0 0-.063 5.857 26.152 26.152 0 0 0 .707 5.195z" data-name="Контур 1292"/><path d="M61.249 75.286a18.432 18.432 0 0 1-6.613 4.446 21.181 21.181 0 0 1-8.294.687s-.672.137-.47.71a1.223 1.223 0 0 0 .945.67s4.727 1.065 8.455-.218a15.894 15.894 0 0 0 6.451-4.914s.54-.715.245-1.227a.452.452 0 0 0-.72-.154z" data-name="Контур 1296"/><path d="M89.461 90.365a13.617 13.617 0 0 1-.736 1.456c-1.231 2.172-4.1 6.822-9.532 8.692-6.651 2.29-15.038-1.788-15.038-1.788l-.328-.126a4.765 4.765 0 0 0-.516-.213 9.449 9.449 0 0 0-1.532-.432 2.035 2.035 0 0 0-1.055.01 1.1 1.1 0 0 0-.528.278.879.879 0 0 0-.273.531c-.173 1.7 2.397 2.85 2.397 2.85s10.727 5.554 18.273 2.956 11.883-13.337 11.883-13.337 1.505-3.374 0-3.924-3.015 3.047-3.015 3.047z" data-name="Контур 1297"/><path d="M95.27 63.571a18.432 18.432 0 0 1-6.612 4.447 21.181 21.181 0 0 1-8.295.686s-.671.138-.469.71a1.223 1.223 0 0 0 .945.67s4.727 1.066 8.454-.218a15.894 15.894 0 0 0 6.452-4.914s.54-.714.245-1.226a.452.452 0 0 0-.72-.155z" data-name="Контур 1309"/></g></svg>