<svg xmlns="http://www.w3.org/2000/svg" viewBox="0 0 177.591 178.39"><g fill="#fff" opacity=".51"><path d="M107.788 154.086c-5.683 3.281-12.353 4.454-19.83 3.488a50.2 50.2 0 0 1-11.193-2.875 71.807 71.807 0 0 1-11.585-5.68 96.789 96.789 0 0 1-11.633-8.277 122.223 122.223 0 0 1-11.331-10.663 149.991 149.991 0 0 1-20.382-27.664l-.395-.684-2.223-3.85-.096-.167-.007-.012a3.707 3.707 0 0 1-.487-2.465A3.91 3.91 0 0 1 20.58 93.4l11.664-6.723a51.534 51.534 0 0 1-2.757-9.02 47.155 47.155 0 0 1-.961-7.81 42.191 42.191 0 0 1 .368-7.501 37.07 37.07 0 0 1 1.668-6.979 31.937 31.937 0 0 1 2.938-6.237 27.012 27.012 0 0 1 9.562-9.389l18.701-10.797a28.452 28.452 0 0 1 12.396-3.73l3.173-1.832a27.876 27.876 0 0 1 12.196-3.676 29.764 29.764 0 0 1 6.267.325 33.224 33.224 0 0 1 6.238 1.622 36.574 36.574 0 0 1 6.017 2.858 39.276 39.276 0 0 1 5.624 4.02 42.439 42.439 0 0 1 6.753 7.318l3.61-2.084a11.12 11.12 0 0 1 4.228-1.703l1.66.445a5.025 5.025 0 0 1 1.748 1.748l.01-.005 2.05 3.55A149.937 149.937 0 0 1 147.5 69.284a122.916 122.916 0 0 1 3.57 15.144 97.508 97.508 0 0 1 1.351 14.212 71.664 71.664 0 0 1-.88 12.877 50.135 50.135 0 0 1-3.104 11.13c-2.904 6.96-7.254 12.149-12.937 15.43zm-79.135-53.179c4.685 7.446 9.543 15.253 15.13 21.266 3.445 3.712 6.286 7.162 9.92 10.207a93.136 93.136 0 0 0 10.924 7.92 68 68 0 0 0 10.857 5.469c3.59 1.4 7.602 3.205 10.959 3.678 6.984.983 13.194-.063 18.458-3.102l25.687-14.83c5.268-3.042 9.278-7.897 11.918-14.436 1.271-3.142 1.715-7.52 2.297-11.332a68.4 68.4 0 0 0 .693-12.137 93.772 93.772 0 0 0-1.397-13.42 118.354 118.354 0 0 0-3.696-14.202c-2.386-7.756-11.149-24.51-11.149-24.51l-.81-1.404-15.966 9.194a4.1 4.1 0 0 1 1.07 2.025c.087 1.072-.097 1.54-.939 2.025a1.913 1.913 0 0 1-2.435-.077 4.363 4.363 0 0 1-1.275-1.911l-69.22 39.885a4.127 4.127 0 0 1 1.117 2.134 1.924 1.924 0 0 1-1.176 2.362 2.426 2.426 0 0 1-2.775-.081 3.392 3.392 0 0 1-1.268-2.052l-8.4 4.84c.476.847.968 1.683 1.476 2.49zm88.494-63.167a31.751 31.751 0 0 0-9.749-9.357 34.9 34.9 0 0 0-5.637-2.75 30.992 30.992 0 0 0-5.835-1.596 27.555 27.555 0 0 0-5.848-.366 23.626 23.626 0 0 0-9.2 1.913c.32.054.642.112.969.172a36.9 36.9 0 0 1 6.876 2.044 42.268 42.268 0 0 1 6.68 3.432 47.155 47.155 0 0 1 6.285 4.738 51.423 51.423 0 0 1 6.47 6.948zm-12.496 7.203a37.563 37.563 0 0 0-4.063-4.734 45.307 45.307 0 0 0-5.756-4.62 40.415 40.415 0 0 0-6.262-3.302 34.708 34.708 0 0 0-6.434-1.992 29.483 29.483 0 0 0-6.41-.608 48.96 48.96 0 0 0-2.25.088l-11.735 6.776c-3.358 1.939-5.267 4.408-7.42 7.766a27.527 27.527 0 0 0-2.608 5.248 31.126 31.126 0 0 0-1.534 5.851 34.984 34.984 0 0 0-.438 6.258 35.563 35.563 0 0 0 .982 6.159 29.6 29.6 0 0 0 2.41 6.806zM49.45 76.761a42.324 42.324 0 0 1-2.936-9.454 39.877 39.877 0 0 1-.672-6.879 36.5 36.5 0 0 1 .54-6.644 33.125 33.125 0 0 1 1.707-6.21 29.786 29.786 0 0 1 2.855-5.59 27.44 27.44 0 0 1 2.825-3.63l-8.633 4.985c-3.612 2.085-5.62 4.815-7.864 8.55a29.3 29.3 0 0 0-2.678 5.855 34.64 34.64 0 0 0-1.49 6.567 40.434 40.434 0 0 0-.275 7.075 42.056 42.056 0 0 0 1.282 7.002 31.77 31.77 0 0 0 2.048 6.032z" data-name="Контур 1292"/><path d="M82.491 98.915a22.4 22.4 0 0 1-6.858 6.837 25.739 25.739 0 0 1-9.733 2.742s-.77.32-.395.957a1.486 1.486 0 0 0 1.282.58s5.887.173 10.034-2.221 6.557-7.359 6.557-7.359.476-.976.008-1.52a.549.549 0 0 0-.895-.016z" data-name="Контур 1296"/><path d="M119.64 110.36a16.547 16.547 0 0 1-.538 1.908c-.966 2.876-3.308 9.088-9.363 12.584-7.402 4.274-18.35 1.356-18.35 1.356l-.42-.073a5.79 5.79 0 0 0-.665-.134 11.482 11.482 0 0 0-1.927-.157 2.473 2.473 0 0 0-1.26.258 1.343 1.343 0 0 0-.566.456 1.068 1.068 0 0 0-.204.695c.186 2.066 3.52 2.844 3.52 2.844s14.092 4.124 22.487-.723 11.087-18.667 11.087-18.667 1.015-4.37-.91-4.68-2.89 4.332-2.89 4.332z" data-name="Контур 1297"/><path d="M120.358 77.053a22.4 22.4 0 0 1-6.859 6.837 25.739 25.739 0 0 1-9.733 2.742s-.77.32-.395.957a1.486 1.486 0 0 0 1.282.58s5.887.173 10.034-2.221 6.558-7.359 6.558-7.359.475-.976.007-1.52a.549.549 0 0 0-.894-.016z" data-name="Контур 1309"/></g></svg>