<svg xmlns="http://www.w3.org/2000/svg" viewBox="0 0 69.468 72"><path fill="#fff" d="M66.022 14.561h-6.9c3.569-2.016 5.585-5.634 4.687-9.027C62.692 1.312 57.484-.985 52.2.412a37.5 37.5 0 0 0-12.023 6.433 1 1 0 0 0-.129.132 16.4 16.4 0 0 0-10.541-.036.966.966 0 0 0-.094-.1A37.51 37.51 0 0 0 17.39.408c-5.284-1.4-10.492.9-11.609 5.122-.9 3.393 1.118 7.011 4.687 9.027H3.444a3.45 3.45 0 0 0-3.446 3.446v10.7a1 1 0 0 0 1 1h14.08v5.932l-6.704 5.074a.439.439 0 0 0-.175.351v21.28a.439.439 0 0 0 .439.439h14.89a.439.439 0 0 0 .439-.439V41.061a.439.439 0 0 0-.175-.351l-6.707-5.066v-5.933h11.434v40.285H6.627a3.789 3.789 0 0 1-3.783-3.785v-33.65a1 1 0 0 0-2 0v33.65A5.8 5.8 0 0 0 6.633 72h56.211a5.8 5.8 0 0 0 5.789-5.789V33.039a1 1 0 0 0-2 0v33.172a3.789 3.789 0 0 1-3.789 3.785H39.912V57.468a1 1 0 0 0-2 0v12.528h-7.389V29.711h7.384v19.307a1 1 0 0 0 2 0V29.711h28.559a1 1 0 0 0 1-1v-10.7a3.45 3.45 0 0 0-3.444-3.45zm-49.939 29.3a1.6 1.6 0 1 1 1.6-1.6 1.6 1.6 0 0 1-1.6 1.6zm28.084-31.373a21.167 21.167 0 0 1 6.449-3.411c2.331-.617 4.594.257 5.042 1.948a3.093 3.093 0 0 1-1.2 3.037 33.752 33.752 0 0 1-4.3.432.983.983 0 0 0-.3.064h-6.314a5.305 5.305 0 0 0 .623-2.07zm8.548-10.141c4.218-1.115 8.326.543 9.16 3.7.714 2.7-1.2 5.636-4.418 7.124a4.451 4.451 0 0 0 .138-2.655c-.73-2.759-4.09-4.272-7.492-3.373a23.113 23.113 0 0 0-6.281 3.106 5.4 5.4 0 0 0-1.871-2.259 35.965 35.965 0 0 1 10.764-5.643zm-10.533 9.714a3.608 3.608 0 0 1-1.018 2.412 1.006 1.006 0 0 0-.061.083H28.384a3.644 3.644 0 0 1-1.1-2.5c0-1.978 2.3-3.973 7.447-3.973s7.451 2.003 7.451 3.978zm-22.438 2.5a.983.983 0 0 0-.3-.064 33.756 33.756 0 0 1-4.3-.432 3.093 3.093 0 0 1-1.2-3.037c.447-1.691 2.709-2.566 5.042-1.949a21.23 21.23 0 0 1 6.313 3.3 5.272 5.272 0 0 0 .63 2.18h-6.185zM7.724 6.046c.834-3.154 4.943-4.812 9.159-3.7a35.98 35.98 0 0 1 10.7 5.592 5.461 5.461 0 0 0-1.908 2.238 23.061 23.061 0 0 0-6.182-3.037c-3.4-.9-6.761.614-7.491 3.373a4.452 4.452 0 0 0 .138 2.655C8.925 11.68 7.007 8.746 7.721 6.044zm59.741 21.661H39.912v-9.4a1 1 0 0 0-2 0v9.4h-7.389v-9.4a1 1 0 0 0-2 0v9.4H2.004v-9.7a1.444 1.444 0 0 1 1.44-1.446h62.578a1.444 1.444 0 0 1 1.443 1.442v9.7z" data-name="Контур 1398"/></svg>