<svg xmlns="http://www.w3.org/2000/svg" viewBox="0 0 94.019 89.229"><g data-name="Сгруппировать 466"><path fill="#50ffd0" d="M22.382 21.432a10.714 10.714 0 1 1 10.717-10.718 10.726 10.726 0 0 1-10.717 10.718zm0-18.915a8.2 8.2 0 1 0 8.2 8.2 8.21 8.21 0 0 0-8.2-8.204z" data-name="Контур 1434"/><path fill="#50ffd0" d="M35.381 38.955h-26a1.256 1.256 0 0 1-1.256-1.27 14.256 14.256 0 0 1 28.51 0 1.256 1.256 0 0 1-1.257 1.27zm-24.658-2.513h23.319a11.742 11.742 0 0 0-23.319 0z" data-name="Контур 1435"/><path fill="#50ffd0" d="M68.838 89.228a1.267 1.267 0 0 1-.326-.043C55.128 85.59 49.08 77.869 46.364 72.025a27.891 27.891 0 0 1-2.7-12V50.65a8.313 8.313 0 0 1 4.981-7.749l.046-.017 10.079-3.516c.424-.158 6.588-2.439 10.068-2.439s9.644 2.281 10.068 2.439l10.079 3.516.046.017a8.313 8.313 0 0 1 4.981 7.749v9.379a27.888 27.888 0 0 1-2.7 12c-2.717 5.844-8.764 13.565-22.148 17.16a1.256 1.256 0 0 1-.326.039zM49.551 45.246a5.822 5.822 0 0 0-3.373 5.4v9.472a25.753 25.753 0 0 0 2.516 10.95c3.6 7.652 10.376 12.9 20.146 15.6 9.77-2.7 16.548-7.945 20.146-15.6a25.745 25.745 0 0 0 2.509-10.948V50.65a5.835 5.835 0 0 0-3.372-5.4l-10.061-3.51-.027-.01c-.061-.023-6.126-2.284-9.2-2.284-2.553 0-7.506 1.649-9.2 2.284l-.027.01z" data-name="Контур 1436"/><path fill="#50ffd0" d="M39.898 56.617h-1.571a1.257 1.257 0 0 1 0-2.513h1.571a1.257 1.257 0 0 1 0 2.513z" data-name="Контур 1437"/><path fill="#50ffd0" d="M37.534 6.132h-1.711a1.257 1.257 0 0 1 0-2.513h1.711a1.257 1.257 0 0 1 0 2.513z" data-name="Контур 1438"/><g data-name="Сгруппировать 464"><path fill="#ccf" d="M41.45 17.724h29.382" data-name="Линия 4"/><path fill="#50ffd0" d="M70.831 18.98H41.45a1.257 1.257 0 0 1 0-2.513h29.382a1.257 1.257 0 0 1 0 2.513z" data-name="Контур 1439"/></g><g data-name="Сгруппировать 465"><path fill="#ccf" d="M41.45 27.729h29.382" data-name="Линия 5"/><path fill="#50ffd0" d="M70.831 28.985H41.45a1.257 1.257 0 1 1 0-2.513h29.382a1.257 1.257 0 0 1 0 2.513z" data-name="Контур 1440"/></g><path fill="#50ffd0" d="M83.877 38.563a1.256 1.256 0 0 1-1.257-1.257v-27.4a3.774 3.774 0 0 0-3.77-3.77H42.456a1.257 1.257 0 1 1 0-2.513h36.4a6.29 6.29 0 0 1 6.283 6.283v27.4a1.256 1.256 0 0 1-1.262 1.257z" data-name="Контур 1441"/><path fill="#50ffd0" d="M33.268 56.778H6.283A6.29 6.29 0 0 1 0 50.495V9.902a6.29 6.29 0 0 1 6.283-6.283h2.714a1.257 1.257 0 1 1 0 2.513H6.283a3.774 3.774 0 0 0-3.77 3.77v40.593a3.774 3.774 0 0 0 3.77 3.77h26.985a1.257 1.257 0 1 1 0 2.513z" data-name="Контур 1442"/><path fill="#50ffd0" d="M89.24 60.22v-9.57a3.539 3.539 0 0 0-1.96-3.3l-9.957-3.474-.077-.028c-2.208-.827-6.444-2.14-8.4-2.14s-6.2 1.313-8.405 2.14l-.076.027-9.957 3.474a3.54 3.54 0 0 0-1.96 3.3v9.588c-.029.724-.487 17.978 20.4 24.081C89.728 78.216 89.27 60.962 89.24 60.22zm-9.193-2.341L68.641 69.287a2.765 2.765 0 0 1-3.909 0l-4.283-4.283a2.765 2.765 0 0 1 3.91-3.91l2.328 2.328 9.451-9.451a2.764 2.764 0 1 1 3.909 3.909z" data-name="Контур 1443"/></g></svg>