<svg xmlns="http://www.w3.org/2000/svg" viewBox="0 0 91.929 96.683"><g fill="#fcbec7" data-name="Сгруппировать 462"><path d="M7.129 48.851v29.107a1.3 1.3 0 0 0 1.3 1.3H28.79a1.3 1.3 0 0 0 1.3-1.3V48.851a1.3 1.3 0 0 0-.515-1.034l-10.187-7.691a1.3 1.3 0 0 0-1.562 0L7.643 47.817a1.3 1.3 0 0 0-.514 1.034zm2.592.645l8.887-6.712 8.887 6.712v27.166H9.721z" data-name="Контур 1416"/><path d="M18.608 46.405a4.088 4.088 0 1 0 4.088 4.088 4.092 4.092 0 0 0-4.088-4.088zm0 5.584a1.5 1.5 0 1 1 1.5-1.5 1.5 1.5 0 0 1-1.5 1.5z" data-name="Контур 1417"/><path d="M2.107 62.333h.041a1.3 1.3 0 0 0 1.294-1.256l.035-1.123a1.3 1.3 0 1 0-2.59-.08l-.035 1.122a1.3 1.3 0 0 0 1.255 1.337z" data-name="Контур 1418"/><path d="M2.281 56.71h.041a1.3 1.3 0 0 0 1.294-1.256l.936-30.428h13.105v8.2a1.3 1.3 0 0 0 2.592 0v-8.2h26.533v8.2a1.3 1.3 0 0 0 2.592 0v-8.2h13.432l.218 8.521a1.3 1.3 0 0 0 2.591-.067l-.251-9.784a1.3 1.3 0 0 0-1.3-1.262h-14.7v-6.576a15.858 15.858 0 0 0-31.716 0v6.576H3.295a1.3 1.3 0 0 0-1.3 1.256l-.974 31.684a1.3 1.3 0 0 0 1.26 1.336zm17.968-40.852a13.267 13.267 0 0 1 26.533 0v6.576H20.249z" data-name="Контур 1419"/><path d="M64.344 36.781a1.3 1.3 0 0 0-1.228 1.361l.054 1.05a1.3 1.3 0 0 0 1.293 1.229h.068a1.3 1.3 0 0 0 1.228-1.361l-.054-1.05a1.3 1.3 0 0 0-1.361-1.229z" data-name="Контур 1420"/><path d="M89.63 60.708a8.152 8.152 0 0 1-1.526-2.26 8.488 8.488 0 0 1-.115-2.854c.1-1.653.211-3.526-.835-4.963s-2.883-1.923-4.494-2.339a8.366 8.366 0 0 1-2.648-.974 8.287 8.287 0 0 1-1.714-2.191c-.9-1.416-1.913-3.02-3.644-3.582a4.2 4.2 0 0 0-1.3-.2 10.2 10.2 0 0 0-3.621.937 8.738 8.738 0 0 1-2.808.784 8.737 8.737 0 0 1-2.808-.784 10.188 10.188 0 0 0-3.621-.937 4.2 4.2 0 0 0-1.3.2c-1.731.562-2.748 2.167-3.644 3.582a8.287 8.287 0 0 1-1.714 2.191 8.373 8.373 0 0 1-2.648.974c-1.611.416-3.437.887-4.494 2.339s-.934 3.311-.835 4.964a8.5 8.5 0 0 1-.115 2.854 8.155 8.155 0 0 1-1.526 2.26c-1.077 1.3-2.3 2.77-2.3 4.622s1.221 3.323 2.3 4.622a8.153 8.153 0 0 1 1.526 2.26 8.488 8.488 0 0 1 .115 2.854c-.1 1.652-.211 3.525.835 4.963s2.883 1.923 4.494 2.339a8.378 8.378 0 0 1 2.648.974 8.289 8.289 0 0 1 1.714 2.191c.9 1.415 1.913 3.02 3.644 3.582a4.2 4.2 0 0 0 1.3.2 10.193 10.193 0 0 0 3.621-.937l.31-.122.012.488a5.369 5.369 0 0 1-5.362 5.347H7.954a5.368 5.368 0 0 1-5.362-5.343l.726-23.6a1.3 1.3 0 0 0-1.255-1.335h-.041A1.3 1.3 0 0 0 .728 65.07L.001 88.693v.04a7.963 7.963 0 0 0 7.954 7.954h51.123a7.963 7.963 0 0 0 7.954-7.954V88.7l-.028-1.1a9.141 9.141 0 0 1 2.73.78 10.188 10.188 0 0 0 3.621.937 4.2 4.2 0 0 0 1.3-.2c1.731-.562 2.747-2.167 3.644-3.582a8.288 8.288 0 0 1 1.713-2.197 8.386 8.386 0 0 1 2.648-.974c1.611-.416 3.437-.887 4.494-2.339s.934-3.311.835-4.963a8.5 8.5 0 0 1 .115-2.854 8.15 8.15 0 0 1 1.527-2.26c1.077-1.3 2.3-2.771 2.3-4.622s-1.223-3.319-2.301-4.618zm-1.995 7.59a9.961 9.961 0 0 0-2 3.114 10.358 10.358 0 0 0-.237 3.81c.08 1.335.156 2.6-.344 3.283s-1.742 1.018-3.046 1.355a10.233 10.233 0 0 0-3.526 1.388 10.128 10.128 0 0 0-2.379 2.9c-.727 1.147-1.413 2.23-2.255 2.5a1.588 1.588 0 0 1-.5.072 8.354 8.354 0 0 1-2.674-.758 10.482 10.482 0 0 0-3.755-.964 6.4 6.4 0 0 0-1.535.2h-.015a17.992 17.992 0 0 0-2.2.755 8.361 8.361 0 0 1-2.674.758 1.593 1.593 0 0 1-.5-.072c-.842-.274-1.528-1.357-2.255-2.5a10.124 10.124 0 0 0-2.379-2.9 10.225 10.225 0 0 0-3.525-1.388c-1.3-.337-2.537-.655-3.046-1.355s-.424-1.948-.344-3.283a10.357 10.357 0 0 0-.237-3.809 9.967 9.967 0 0 0-2-3.114c-.875-1.054-1.7-2.051-1.7-2.967s.826-1.913 1.7-2.967a9.964 9.964 0 0 0 2-3.114 10.361 10.361 0 0 0 .237-3.809c-.08-1.336-.156-2.6.344-3.284s1.742-1.018 3.046-1.355a10.229 10.229 0 0 0 3.527-1.381 10.133 10.133 0 0 0 2.379-2.9c.727-1.147 1.413-2.231 2.255-2.5a1.588 1.588 0 0 1 .5-.072 8.357 8.357 0 0 1 2.674.758 10.478 10.478 0 0 0 3.755.964 10.482 10.482 0 0 0 3.755-.964 8.36 8.36 0 0 1 2.674-.758 1.6 1.6 0 0 1 .5.072c.842.273 1.528 1.357 2.255 2.5a7.491 7.491 0 0 0 5.9 4.288c1.3.337 2.537.655 3.046 1.355s.424 1.948.344 3.283a10.346 10.346 0 0 0 .237 3.809 9.966 9.966 0 0 0 2 3.114c.875 1.054 1.7 2.051 1.7 2.967s-.826 1.914-1.701 2.969z" data-name="Контур 1421"/><path d="M66.925 48.95a16.38 16.38 0 1 0 16.38 16.38 16.4 16.4 0 0 0-16.38-16.38zm-1.573 7.1a1.949 1.949 0 1 1-1.949 1.949 1.949 1.949 0 0 1 1.949-1.948zm3.028 16.47a1.949 1.949 0 1 1 1.949-1.949 1.949 1.949 0 0 1-1.949 1.949zm5.071-12.621L62.48 70.871a1.556 1.556 0 1 1-2.2-2.2L71.252 57.7a1.556 1.556 0 0 1 2.2 2.2z" data-name="Контур 1422"/><path d="M23.961 33.222a1.3 1.3 0 0 0-2.592 0 2.354 2.354 0 1 1-4.709 0 1.3 1.3 0 0 0-2.592 0 4.946 4.946 0 0 0 9.892 0z" data-name="Контур 1423"/><path d="M50.432 33.222a2.354 2.354 0 1 1-4.709 0 1.3 1.3 0 0 0-2.592 0 4.946 4.946 0 0 0 9.892 0 1.3 1.3 0 0 0-2.592 0z" data-name="Контур 1424"/></g></svg>