<svg xmlns="http://www.w3.org/2000/svg" viewBox="0 0 76.114 82.419"><g fill="#50fff9" data-name="Сгруппировать 457"><path d="M61.515 50.471H40.56a5.175 5.175 0 0 0-2.509.646 16.343 16.343 0 0 0-1.31-2.1c2.115-2.381 3.091-4.759 2.9-7.08a8.71 8.71 0 0 0-2.788-5.4 6.7 6.7 0 0 1-1.9-3.758 12.115 12.115 0 0 0-.586-10.071v-.006l-.071-.135c-.013-.023-.024-.046-.039-.068a12.15 12.15 0 0 0-22.735 4.814c-.2-.027-.313-.045-.325-.047a1.135 1.135 0 0 0-.38 2.238c.038.006.289.048.716.1a12.057 12.057 0 0 0 .61 2.755 6.631 6.631 0 0 1-1.938 4.176 8.711 8.711 0 0 0-2.788 5.4c-.2 2.361.814 4.781 3 7.2a16.162 16.162 0 0 0-3.071 9.315 1.135 1.135 0 0 0 1.135 1.147H35.36v10.5a5.213 5.213 0 0 0 5.2 5.21h4.42v1.438a3.409 3.409 0 0 1-3.4 3.4H5.68a3.409 3.409 0 0 1-3.4-3.4V9.117h31.68a1.135 1.135 0 0 0 0-2.27H2.27V5.675a3.409 3.409 0 0 1 3.4-3.4h35.9a3.409 3.409 0 0 1 3.4 3.4v37.8a1.135 1.135 0 0 0 2.27 0v-37.8A5.681 5.681 0 0 0 41.565 0h-35.9A5.681 5.681 0 0 0-.01 5.675v71.07a5.681 5.681 0 0 0 5.675 5.675h35.9a5.681 5.681 0 0 0 5.675-5.675v-1.438h14.275a.794.794 0 0 0 .794-.794V51.266a.794.794 0 0 0-.794-.795zM23.627 18.503a9.821 9.821 0 0 1 5.012 1.37c-3.753 2.639-10.621 3.041-10.722 3.047a1.135 1.135 0 0 0 .058 2.268h.06c.353-.018 8.237-.471 12.473-3.885a9.956 9.956 0 0 1 1.361 1.638c-5.382 4.733-13.856 4.874-18.088 4.6a9.9 9.9 0 0 1 9.846-9.038zm-7.234 11.4c.917 0 1.913-.031 2.958-.109 5.6-.421 10.249-2.064 13.569-4.773a9.876 9.876 0 0 1-.166 7.16h-.116c0 .02 0 .109.006.251a9.882 9.882 0 0 1-18.8-2.606c.75.043 1.606.076 2.548.076zM9.679 42.13a6.446 6.446 0 0 1 2.131-3.98 8.909 8.909 0 0 0 1.882-2.767 12.138 12.138 0 0 0 19.748.167 8.9 8.9 0 0 0 1.806 2.6 6.446 6.446 0 0 1 2.131 3.985c.136 1.608-.579 3.334-2.119 5.141a16.195 16.195 0 0 0-23.368.109c-1.605-1.852-2.35-3.614-2.211-5.255zm0 15.2a14 14 0 0 1 26.629-4.643 5.177 5.177 0 0 0-.948 2.99v1.653z" data-name="Контур 1384"/><path d="M75.319 52.524h-2.352a.8.8 0 0 0-.39.1l-7.841 4.425a.794.794 0 0 0-.4.692v10.29a.8.8 0 0 0 .4.692l7.841 4.428a.792.792 0 0 0 .39.1h2.352a.794.794 0 0 0 .794-.794V53.318a.794.794 0 0 0-.794-.794z" data-name="Контур 1385"/><path d="M40.266 6.847a1.135 1.135 0 0 0 0 2.27h1.2a1.135 1.135 0 1 0 0-2.27z" data-name="Контур 1386"/><path d="M27.198 75.647a3.215 3.215 0 0 0 0-6.429h-7.142a3.215 3.215 0 0 0 0 6.429zm-8.089-3.219a.946.946 0 0 1 .945-.945h7.142a.945.945 0 0 1 0 1.89h-7.142a.946.946 0 0 1-.945-.945z" data-name="Контур 1387"/><path d="M46.118 46.723a1.135 1.135 0 0 0-1.135 1.135v.735a1.135 1.135 0 0 0 2.27 0v-.735a1.135 1.135 0 0 0-1.135-1.135z" data-name="Контур 1388"/></g></svg>