<svg xmlns="http://www.w3.org/2000/svg" viewBox="0 0 91.598 88.5"><g fill="#fff" data-name="Сгруппировать 461"><path d="M15.72 41.05v-.711a1.189 1.189 0 1 0-2.378 0v.711a1.189 1.189 0 1 0 2.378 0z" data-name="Контур 1408"/><path d="M48.453 31.493c.34-.659.708-2.046-.635-3.928l-18.2-25.494a4.322 4.322 0 0 0-7.379 0l-18.2 25.494c-1.344 1.882-.975 3.269-.636 3.928s1.254 1.765 3.566 1.765h6.373v3.2a1.189 1.189 0 0 0 2.378 0v-4.389a1.189 1.189 0 0 0-1.189-1.189H6.975c-.891 0-1.339-.256-1.452-.475s-.061-.733.457-1.458l18.2-25.494a1.969 1.969 0 0 1 3.508 0l18.2 25.494c.517.725.57 1.239.457 1.458s-.56.475-1.452.475h-7.562a1.189 1.189 0 0 0-1.189 1.189v33.7h-2.774a1.189 1.189 0 1 0 0 2.378h3.963a1.189 1.189 0 0 0 1.189-1.189v-33.7h6.367c2.312 0 3.227-1.106 3.566-1.765z" data-name="Контур 1409"/><path d="M74.384 39.547v1.184a1.189 1.189 0 0 0 2.378 0v-1.184a1.189 1.189 0 0 0-2.378 0z" data-name="Контур 1410"/><path d="M83.128 55.243h-6.366V45.166a1.189 1.189 0 1 0-2.378 0v11.266a1.189 1.189 0 0 0 1.189 1.189h7.555c.891 0 1.339.256 1.452.475s.061.733-.457 1.458l-18.2 25.494a1.969 1.969 0 0 1-3.508 0l-18.2-25.494c-.517-.725-.569-1.239-.457-1.458s.56-.475 1.452-.475h7.556a1.189 1.189 0 0 0 1.189-1.189v-33.7h2.763a1.189 1.189 0 0 0 0-2.378h-3.945a1.189 1.189 0 0 0-1.189 1.189v33.7h-6.371c-2.313 0-3.227 1.106-3.566 1.765s-.708 2.046.635 3.928l18.2 25.494a4.322 4.322 0 0 0 7.379 0l18.2-25.494c1.344-1.882.975-3.269.636-3.928s-1.256-1.765-3.569-1.765z" data-name="Контур 1411"/><path d="M16.146 43.364A16.146 16.146 0 1 0 32.291 59.51a16.164 16.164 0 0 0-16.145-16.146zm4.046 12.811a1.427 1.427 0 0 1 2.853 0v2.217a1.427 1.427 0 0 1-2.853 0zm-10.452 0a1.427 1.427 0 0 1 2.853 0v2.217a1.427 1.427 0 0 1-2.853 0zm15.325 7.288a10.3 10.3 0 0 1-17.836 0 1.427 1.427 0 0 1 2.47-1.429 7.446 7.446 0 0 0 12.9 0 1.427 1.427 0 0 1 2.47 1.429z" data-name="Контур 1412"/><path d="M75.453 36.692a16.146 16.146 0 1 0-16.151-16.145 16.164 16.164 0 0 0 16.151 16.145zm4.049-19.48a1.427 1.427 0 1 1 2.853 0v2.217a1.427 1.427 0 1 1-2.853 0zm-10.453 0a1.427 1.427 0 1 1 2.853 0v2.217a1.427 1.427 0 1 1-2.853 0zm-.93 8.933a10.3 10.3 0 0 1 14.379-.289 1.427 1.427 0 0 1-1.952 2.082 7.443 7.443 0 0 0-10.394.209 1.427 1.427 0 1 1-2.033-2z" data-name="Контур 1413"/><path d="M29.065 44.179l2.293-2.293a1.189 1.189 0 1 0-1.681-1.681l-2.293 2.293a1.189 1.189 0 1 0 1.681 1.681z" data-name="Контур 1414"/><path d="M25.018 40.427v-3.243a1.189 1.189 0 0 0-2.378 0v3.243a1.189 1.189 0 0 0 2.378 0z" data-name="Контур 1415"/></g></svg>