<svg xmlns="http://www.w3.org/2000/svg" viewBox="0 0 96.138 94.604"><g fill="#ecf6b3" data-name="Сгруппировать 460"><path d="M26.611 9.901l-.517.517-.517-.517a8.492 8.492 0 0 0-12.01 12.01l11.617 11.616a1.287 1.287 0 0 0 1.821 0L38.621 21.91A8.492 8.492 0 1 0 26.611 9.9zm10.188 10.188L26.092 30.795l-10.7-10.706a5.917 5.917 0 1 1 8.368-8.367l1.428 1.428a1.287 1.287 0 0 0 1.821 0l1.428-1.428a5.917 5.917 0 0 1 8.367 8.367z" data-name="Контур 1400"/><path d="M53.731 37.734V6.439A6.446 6.446 0 0 0 47.292 0h-6.573a1.288 1.288 0 1 0 0 2.576h6.576a3.868 3.868 0 0 1 3.863 3.863v31.295a3.868 3.868 0 0 1-3.863 3.863H21.931a1.287 1.287 0 0 0-.917.384l-6.711 6.813v-5.909a1.288 1.288 0 0 0-1.288-1.288H6.439a3.868 3.868 0 0 1-3.863-3.863V6.439a3.868 3.868 0 0 1 3.863-3.863h21.1a1.288 1.288 0 0 0 0-2.576h-21.1A6.446 6.446 0 0 0 0 6.439v31.295a6.446 6.446 0 0 0 6.439 6.439h5.292v7.764a1.288 1.288 0 0 0 2.205.9l8.535-8.664h24.824a6.447 6.447 0 0 0 6.436-6.439z" data-name="Контур 1401"/><path d="M33.289 2.576h2.488a1.288 1.288 0 0 0 0-2.576h-2.488a1.288 1.288 0 1 0 0 2.576z" data-name="Контур 1402"/><path d="M31.295 47.363v1.423a1.288 1.288 0 1 0 2.576 0v-1.423a1.288 1.288 0 1 0-2.576 0z" data-name="Контур 1403"/><path d="M88.581 30.376H56.097a1.288 1.288 0 1 0 0 2.576h32.484a4.988 4.988 0 0 1 4.982 4.982v38.09a4.987 4.987 0 0 1-4.982 4.982h-8a1.288 1.288 0 0 0-1.288 1.288v7.882l-8.647-8.779a1.287 1.287 0 0 0-.917-.384H38.852a4.987 4.987 0 0 1-4.982-4.982v-21.81a1.288 1.288 0 1 0-2.576 0v21.81a7.566 7.566 0 0 0 7.557 7.558h30.332l10.474 10.633a1.288 1.288 0 0 0 2.205-.9v-9.736h6.717a7.566 7.566 0 0 0 7.557-7.558v-38.09a7.566 7.566 0 0 0-7.555-7.562z" data-name="Контур 1404"/><path d="M75.797 46.849l-7.527-1.094-3.367-6.821a1.273 1.273 0 0 0-2.282 0l-3.366 6.821-7.528 1.094a1.272 1.272 0 0 0-.705 2.17l5.447 5.31-1.286 7.5a1.273 1.273 0 0 0 1.846 1.341l6.733-3.54 6.733 3.54a1.272 1.272 0 0 0 1.846-1.341l-1.286-7.5 5.447-5.31a1.272 1.272 0 0 0-.705-2.17z" data-name="Контур 1405"/><path d="M41.059 74.976a1.29 1.29 0 0 0 1.357.1l6.181-3.25 6.181 3.25a1.288 1.288 0 0 0 1.869-1.358l-1.3-7.55a1.288 1.288 0 1 0-2.538.435l.854 4.978-4.47-2.351a1.288 1.288 0 0 0-1.2 0l-4.471 2.351.854-4.978a1.289 1.289 0 0 0-.37-1.14l-3.617-3.525 5-.726a1.288 1.288 0 0 0 .969-.7l2.236-4.529 2.236 4.529a1.288 1.288 0 1 0 2.31-1.14l-3.39-6.869a1.288 1.288 0 0 0-2.309 0l-3.091 6.262-6.911 1a1.288 1.288 0 0 0-.714 2.2l5 4.874-1.181 6.883a1.287 1.287 0 0 0 .515 1.254z" data-name="Контур 1406"/><path d="M91.031 60.638a1.288 1.288 0 0 0-1.039-.876l-6.911-1L79.99 52.5a1.288 1.288 0 0 0-2.309 0l-3.39 6.869a1.288 1.288 0 1 0 2.31 1.14l2.236-4.529 2.236 4.529a1.287 1.287 0 0 0 .969.7l5 .726-3.617 3.525a1.289 1.289 0 0 0-.37 1.14l.854 4.978-4.471-2.35a1.288 1.288 0 0 0-1.2 0l-4.47 2.35.854-4.978a1.288 1.288 0 1 0-2.538-.435l-1.3 7.55a1.288 1.288 0 0 0 1.869 1.358l6.181-3.25 6.181 3.25a1.288 1.288 0 0 0 1.869-1.358l-1.181-6.883 5-4.874a1.289 1.289 0 0 0 .328-1.32z" data-name="Контур 1407"/></g></svg>