<svg xmlns="http://www.w3.org/2000/svg" viewBox="0 0 99.729 96.79"><g fill="#fff" data-name="Сгруппировать 463"><path d="M52.66 49.423a1.31 1.31 0 0 0-.726 2.235l6.915 6.74-1.632 9.517a1.31 1.31 0 0 0 1.9 1.382l8.547-4.494 8.547 4.494a1.31 1.31 0 0 0 1.9-1.382l-1.632-9.517 6.915-6.74a1.31 1.31 0 0 0-.726-2.235l-9.555-1.388-4.274-8.659a1.31 1.31 0 0 0-2.35 0l-4.274 8.659z" data-name="Контур 1425"/><path d="M31.971 53.196a25.694 25.694 0 0 1-3.158.288 1.309 1.309 0 0 0-.841.338l-6.701 6.053v-6.317a1.31 1.31 0 0 0-.914-1.249 25.445 25.445 0 1 1 25.95-6.531 1.31 1.31 0 1 0 1.88 1.826A28.058 28.058 0 1 0 0 28.058a28.071 28.071 0 0 0 18.652 26.441v8.326a1.31 1.31 0 0 0 2.189.972l8.53-7.712a28.255 28.255 0 0 0 2.995-.3 1.31 1.31 0 1 0-.4-2.59z" data-name="Контур 1426"/><path d="M42.343 49.109c-.563.383-1.148.747-1.738 1.082a1.31 1.31 0 1 0 1.295 2.278c.65-.37 1.3-.771 1.916-1.193a1.31 1.31 0 0 0-1.474-2.167z" data-name="Контур 1427"/><path d="M69.16 23.474a1.31 1.31 0 0 0-.12 2.618 29.446 29.446 0 0 1 22.268 46.964 29.71 29.71 0 0 1-14.731 10.518 1.31 1.31 0 0 0-.914 1.249v7.705l-8.029-7.254a1.309 1.309 0 0 0-.841-.338 29.447 29.447 0 0 1-15.229-54.088 1.31 1.31 0 0 0-1.435-2.193 32.067 32.067 0 0 0 16.1 58.883l9.863 8.915a1.31 1.31 0 0 0 2.189-.972v-9.712a32.07 32.07 0 0 0-9.124-62.294z" data-name="Контур 1428"/><path d="M59.732 27.093a1.32 1.32 0 0 0 .338-.045c.751-.2 1.518-.371 2.281-.51a1.31 1.31 0 0 0-.469-2.578c-.831.151-1.668.338-2.485.556a1.311 1.311 0 0 0 .336 2.577z" data-name="Контур 1429"/><path d="M28.058 12.968a5.593 5.593 0 0 0-5.587 5.583v4.419a1.31 1.31 0 0 0 2.621 0v-4.419a2.966 2.966 0 0 1 5.932 0v7.84a2.969 2.969 0 0 1-2.966 2.966 1.311 1.311 0 0 0-1.31 1.31v3.384a1.31 1.31 0 0 0 2.621 0v-2.225a5.6 5.6 0 0 0 4.276-5.432v-7.843a5.593 5.593 0 0 0-5.587-5.583z" data-name="Контур 1430"/><path d="M29.369 40.897v-.867a1.31 1.31 0 1 0-2.621 0v.867a1.31 1.31 0 0 0 2.621 0z" data-name="Контур 1431"/><path d="M70.291 17.201a1.31 1.31 0 0 0 1.31-1.31V8.342a1.31 1.31 0 0 0-2.621 0v7.548a1.311 1.311 0 0 0 1.311 1.311z" data-name="Контур 1432"/><path d="M80.644 19.821a1.309 1.309 0 0 0 1.758-.586l2.94-5.88a1.31 1.31 0 0 0-2.344-1.172l-2.94 5.88a1.311 1.311 0 0 0 .586 1.758z" data-name="Контур 1433"/></g></svg>