<svg xmlns="http://www.w3.org/2000/svg" viewBox="0 0 85.714 75.5"><g fill="#fcbec7" data-name="Сгруппировать 458"><path d="M13.462 73.3H8.898a5.077 5.077 0 0 1-5.071-5.071v-7.464h42.835a1.1 1.1 0 1 0 0-2.2H12.129v-21.69a1.1 1.1 0 0 0-2.2 0v21.69h-7.2a1.1 1.1 0 0 0-1.1 1.1v8.564a7.279 7.279 0 0 0 7.271 7.27h4.562a1.1 1.1 0 1 0 0-2.2z" data-name="Контур 1389"/><path d="M65.728 48.267a1.1 1.1 0 0 0-1.1 1.1v18.866a5.071 5.071 0 0 1-10.142 0v-7.088a1.1 1.1 0 0 0-2.2 0v7.088a7.245 7.245 0 0 0 2.067 5.071h-29a1.1 1.1 0 0 0 0 2.2H59.56a7.279 7.279 0 0 0 7.27-7.27V49.367a1.1 1.1 0 0 0-1.102-1.1z" data-name="Контур 1390"/><path d="M20.241 73.3h-2.179a1.1 1.1 0 1 0 0 2.2h2.179a1.1 1.1 0 1 0 0-2.2z" data-name="Контур 1391"/><path d="M13.763 31.948a1.183 1.183 0 0 0 1.673 0l11.356-11.356a8.2 8.2 0 0 0 1.485-2.028h15.738a1.1 1.1 0 0 0 0-2.2H29.044a8.224 8.224 0 0 0-13.885-7.406l-.56.56-.56-.56a8.26 8.26 0 0 0-1.908-1.427V2.2h52.5v20.027a1.1 1.1 0 0 0 2.2 0V1.1a1.1 1.1 0 0 0-1.1-1.1h-54.7a1.1 1.1 0 0 0-1.1 1.1v5.626a8.3 8.3 0 0 0-1.707-.178 8.226 8.226 0 0 0-5.818 14.044z" data-name="Контур 1392"/><path d="M50.487 16.363a1.1 1.1 0 1 0 0 2.2h2.251a1.1 1.1 0 0 0 0-2.2z" data-name="Контур 1393"/><path d="M45.117 31.612a1.1 1.1 0 0 0-1.1-1.1H19.152a1.1 1.1 0 1 0 0 2.2h24.865a1.1 1.1 0 0 0 1.1-1.1z" data-name="Контур 1394"/><path d="M19.152 44.88a1.1 1.1 0 1 0 0 2.2h16.091a1.1 1.1 0 1 0 0-2.2z" data-name="Контур 1395"/><path d="M9.929 32.052v.847a1.1 1.1 0 0 0 2.2 0v-.847a1.1 1.1 0 0 0-2.2 0z" data-name="Контур 1396"/><path d="M83.981 32.774l-12.442-8.561a3.752 3.752 0 0 0-2.117-.743c-1.32 0-2.653 1.005-2.653 3.25v2.686l-.193.015h-.044l-1.3.154c-.754.076-1.535.207-2.362.345l-.67.111-.044.008-.257.052c-.992.2-2.017.412-3.09.711-.631.156-1.251.348-1.771.515l-.87.276-.046.016-.857.313c-.544.191-1.134.425-1.8.717-.573.232-1.128.5-1.664.763l-.113.055a33.649 33.649 0 0 0-3.416 1.943 31.112 31.112 0 0 0-3.041 2.261 28.49 28.49 0 0 0-4.617 4.919 24.871 24.871 0 0 0-2.48 4.144c-.2.428-.384.859-.567 1.336l-.143.394-.009.026-.037.112a3.8 3.8 0 0 0 3.554 5.121 3.816 3.816 0 0 0 3.51-2.355l.068-.117.01-.018c.094-.16.237-.4.448-.716a16.929 16.929 0 0 1 2.074-2.5 19.618 19.618 0 0 1 3.68-2.878 21.953 21.953 0 0 1 2.32-1.226 23.766 23.766 0 0 1 2.547-.969l.209-.064c.382-.118.742-.229 1.1-.312l.038-.009c.512-.137.93-.233 1.316-.3h.022l.671-.137.684-.1a16.26 16.26 0 0 1 1.3-.171h.045c.722-.09 1.452-.127 2.157-.164l.385-.02c.237 0 .47 0 .7-.007.263 0 .52-.007.772-.007.33 0 .6.006.839.02h.025l.921.03v3.146c0 2.245 1.332 3.25 2.653 3.25a3.755 3.755 0 0 0 2.117-.743l12.442-8.561a3.466 3.466 0 0 0 0-6zm-1.247 4.191l-12.442 8.561a1.628 1.628 0 0 1-.87.356c-.431 0-.453-.875-.453-1.051v-4.17a1.1 1.1 0 0 0-1.015-1.1l-.916-.071h-.049l-1.057-.034a17.47 17.47 0 0 0-.948-.023c-.262 0-.529 0-.8.007-.23 0-.465.006-.7.008h-.055l-.407.022c-.737.038-1.5.078-2.292.175-.466.039-.915.1-1.434.189l-.7.107-.055.01-.685.14c-.437.08-.9.187-1.459.335-.434.1-.845.228-1.243.351l-.207.064a25.993 25.993 0 0 0-2.8 1.064l-.024.011a23.992 23.992 0 0 0-2.551 1.35 21.8 21.8 0 0 0-4.08 3.193 19.2 19.2 0 0 0-2.346 2.824c-.248.369-.417.656-.526.841l-.046.081a1.3 1.3 0 0 0-.109.192c-.015.03-.028.061-.041.093a1.6 1.6 0 0 1-1.491 1.028 1.6 1.6 0 0 1-1.49-2.162l.017-.048.038-.114.13-.359c.158-.409.321-.793.5-1.173a22.909 22.909 0 0 1 2.261-3.776 26.286 26.286 0 0 1 4.267-4.544 28.9 28.9 0 0 1 2.822-2.1 31.4 31.4 0 0 1 3.175-1.805l.112-.055a26.04 26.04 0 0 1 1.54-.707l.028-.012a23.802 23.802 0 0 1 1.679-.668l.849-.311.851-.27a24.768 24.768 0 0 1 1.643-.479l.034-.009c1-.281 2-.483 2.955-.679l.236-.048.657-.109c.79-.132 1.536-.257 2.236-.328l1.3-.153 1.164-.089h.024a1.1 1.1 0 0 0 1.013-1.1v-3.7c0-.176.022-1.051.453-1.051a1.63 1.63 0 0 1 .87.356l12.442 8.561a1.3 1.3 0 0 1 0 2.38z" data-name="Контур 1397"/></g></svg>