<svg xmlns="http://www.w3.org/2000/svg" viewBox="0 0 87.349 90.92"><g opacity=".7"><g data-name="Сгруппировать 288"><g data-name="Сгруппировать 287"><path fill="#fff" d="M69.7 32.94L80.65 66.646 26.957 84.091 16.005 50.387l-5.002 1.625L22.8 88.316a2.683 2.683 0 0 0 3.346 1.786L84.84 71.03a2.683 2.683 0 0 0 1.657-3.411L74.702 31.315z" data-name="Контур 1067"/></g></g><g data-name="Сгруппировать 290"><g data-name="Сгруппировать 289"><path fill="#fff" d="M70.452 11.142L2.5 33.222a2.683 2.683 0 0 0-1.656 3.411l5.518 16.982a2.683 2.683 0 0 0 3.345 1.787l67.952-22.08a2.682 2.682 0 0 0 1.657-3.411l-5.518-16.982a2.683 2.683 0 0 0-3.346-1.787zm3.017 17.796L10.52 49.392 6.692 37.609l62.95-20.454 3.828 11.784z" data-name="Контур 1068"/></g></g><g data-name="Сгруппировать 292"><g data-name="Сгруппировать 291"><path fill="#fff" d="M39.567 23.322c-.389-.619-9.656-15.1-21.703-11.186A10.207 10.207 0 0 0 11.568 25.1 10.166 10.166 0 0 0 24.2 31.917l14.004-4.55a2.6 2.6 0 0 0 1.652-1.655 2.82 2.82 0 0 0-.288-2.39zM22.51 26.72a4.738 4.738 0 0 1-5.94-3.243 4.895 4.895 0 0 1 2.982-6.142c5.488-1.783 10.6 2.767 13.396 5.993L22.51 26.72z" data-name="Контур 1069"/></g></g><g data-name="Сгруппировать 294"><g data-name="Сгруппировать 293"><path fill="#fff" d="M45.712 3.09C33.666 7.002 34.679 24.167 34.729 24.894a2.817 2.817 0 0 0 1.169 2.103 2.6 2.6 0 0 0 2.308.368l14.011-4.553A10.166 10.166 0 0 0 58.424 9.88a10.206 10.206 0 0 0-12.712-6.79zm4.813 14.528l-10.448 3.395c.353-4.248 1.804-10.932 7.325-12.726a4.895 4.895 0 0 1 6.022 3.216 4.738 4.738 0 0 1-2.895 6.114z" data-name="Контур 1070"/></g></g><g data-name="Сгруппировать 296"><g data-name="Сгруппировать 295"><path fill="#fff" d="M34.861 25.581l5.003-1.625 17.285 53.199-5.002 1.625z" data-name="Прямоугольник 1416"/></g></g></g></svg>