<svg xmlns="http://www.w3.org/2000/svg" viewBox="0 0 89.123 92.448"><g data-name="Сгруппировать 288"><g data-name="Сгруппировать 287"><path fill="#fff" d="M69.567 32.178L82.254 65.28 29.52 85.493 16.832 52.39l-4.913 1.883L25.585 89.93a2.684 2.684 0 0 0 3.435 1.61l57.648-22.095a2.684 2.684 0 0 0 1.478-3.495L74.479 30.295z" data-name="Контур 1067"/></g></g><g data-name="Сгруппировать 290"><g data-name="Сгруппировать 289"><path fill="#fff" d="M69.188 10.363L2.45 35.943a2.684 2.684 0 0 0-1.478 3.494l6.392 16.679a2.684 2.684 0 0 0 3.435 1.611l66.737-25.58a2.683 2.683 0 0 0 1.478-3.494l-6.392-16.679a2.684 2.684 0 0 0-3.435-1.61zm3.936 17.621L11.3 51.681 6.865 40.11l61.824-23.697 4.436 11.573z" data-name="Контур 1068"/></g></g><g data-name="Сгруппировать 292"><g data-name="Сгруппировать 291"><path fill="#fff" d="M38.966 24.132c-.42-.598-10.43-14.584-22.26-10.05a10.21 10.21 0 0 0-5.618 13.28 10.17 10.17 0 0 0 12.971 6.153l13.754-5.272a2.6 2.6 0 0 0 1.564-1.738 2.82 2.82 0 0 0-.41-2.373zM22.103 28.41A4.74 4.74 0 0 1 16 25.478a4.896 4.896 0 0 1 2.66-6.29c5.39-2.066 10.733 2.215 13.693 5.292l-10.251 3.93z" data-name="Контур 1069"/></g></g><g data-name="Сгруппировать 294"><g data-name="Сгруппировать 293"><path fill="#fff" d="M44.055 3.601c-11.83 4.535-9.929 21.63-9.841 22.353a2.818 2.818 0 0 0 1.277 2.04 2.6 2.6 0 0 0 2.325.248l13.76-5.274a10.17 10.17 0 0 0 5.53-13.243A10.21 10.21 0 0 0 44.056 3.6zm5.562 14.265l-10.262 3.933c.133-4.262 1.236-11.015 6.658-13.093a4.896 4.896 0 0 1 6.183 2.9 4.74 4.74 0 0 1-2.575 6.258z" data-name="Контур 1070"/></g></g><g data-name="Сгруппировать 296"><g data-name="Сгруппировать 295"><path fill="#fff" d="M34.382 26.633l4.913-1.883 20.027 52.248-4.913 1.883z" data-name="Прямоугольник 1416"/></g></g></svg>