<svg xmlns="http://www.w3.org/2000/svg" viewBox="0 0 113.375 116.439"><g opacity=".64"><g data-name="Сгруппировать 288"><g data-name="Сгруппировать 287"><path fill="#fff" d="M90.012 70.476L67.8 107.442 8.913 72.059l22.211-36.966-5.486-3.296L1.715 71.612a3.265 3.265 0 0 0 1.03 4.5l64.373 38.679a3.265 3.265 0 0 0 4.456-1.203l23.923-39.815z" data-name="Контур 1067"/></g></g><g data-name="Сгруппировать 290"><g data-name="Сгруппировать 289"><path fill="#fff" d="M110.632 53.765L36.106 8.985a3.265 3.265 0 0 0-4.456 1.203L20.46 28.813a3.265 3.265 0 0 0 1.03 4.5l74.525 44.779a3.264 3.264 0 0 0 4.456-1.203l11.19-18.625a3.264 3.264 0 0 0-1.03-4.5zM96.697 70.743L27.657 29.26l7.766-12.924 69.04 41.483-7.766 12.924z" data-name="Контур 1068"/></g></g><g data-name="Сгруппировать 292"><g data-name="Сгруппировать 291"><path fill="#fff" d="M74.79 35.127c.256-.85 6.156-20.925-7.053-28.863a12.421 12.421 0 0 0-16.934 4.57c-3.59 5.973-1.874 13.617 3.824 17.04l15.362 9.231a3.16 3.16 0 0 0 2.838.196 3.431 3.431 0 0 0 1.962-2.174zM58.051 22.174a5.765 5.765 0 0 1-1.763-8.043 5.956 5.956 0 0 1 8.021-2.164c6.02 3.617 5.922 11.945 5.19 17.087l-11.448-6.88z" data-name="Контур 1069"/></g></g><g data-name="Сгруппировать 294"><g data-name="Сгруппировать 293"><path fill="#fff" d="M98.277 24.615c-13.212-7.939-28.165 6.695-28.795 7.323a3.428 3.428 0 0 0-1 2.754 3.159 3.159 0 0 0 1.506 2.414l15.363 9.23c5.697 3.424 13.252 1.35 16.842-4.623a12.42 12.42 0 0 0-3.916-17.098zm-9.5 16.02l-11.46-6.886c4.185-3.067 11.482-7.07 17.536-3.432a5.956 5.956 0 0 1 1.855 8.098 5.766 5.766 0 0 1-7.93 2.22z" data-name="Контур 1070"/></g></g><g data-name="Сгруппировать 296"><g data-name="Сгруппировать 295"><path fill="#fff" d="M68.958 32.606l5.487 3.297-35.058 58.345-5.486-3.296z" data-name="Прямоугольник 1416"/></g></g></g></svg>