<svg xmlns="http://www.w3.org/2000/svg" viewBox="0 0 33.82 36.104"><g data-name="Сгруппировать 299"><g data-name="Сгруппировать 298"><path fill="#fff" d="M6.746.578a4.578 4.578 0 0 0-4.473.011l16.439 15.174 5.522-5.526z" data-name="Контур 1164"/></g></g><g data-name="Сгруппировать 301"><g data-name="Сгруппировать 300"><path fill="#fff" d="M.631 2.141A4.21 4.21 0 0 0 0 4.341v27.411a4.224 4.224 0 0 0 .588 2.15l16.53-16.542z" data-name="Контур 1165"/></g></g><g data-name="Сгруппировать 303"><g data-name="Сгруппировать 302"><path fill="#fff" d="M31.555 14.28l-5.267-2.909-5.921 5.924 7.253 6.695 3.934-2.173a4.265 4.265 0 0 0 0-7.534z" data-name="Контур 1166"/></g></g><g data-name="Сгруппировать 305"><g data-name="Сгруппировать 304"><path fill="#fff" d="M18.775 18.889L2.201 35.477a4.567 4.567 0 0 0 4.545.043l18.8-10.382z" data-name="Контур 1167"/></g></g></svg>