<svg xmlns="http://www.w3.org/2000/svg" viewBox="0 0 295.422 300.409"><g fill="#00b38d" opacity=".14"><path d="M111.13 300.409c-15 0-29.552-5.3-43.253-15.762A114.848 114.848 0 0 1 49 266.157a164.5 164.5 0 0 1-16.447-24.492 221.691 221.691 0 0 1-13.571-29.687 279.754 279.754 0 0 1-10.246-34.073A342.887 342.887 0 0 1 .002 99.829V87.858s-.006-.164 0-.44v-.029c.043-1.125.3-3.99 1.855-5.44 1.957-1.828 5.965-1.4 5.965-1.4l30.783.022a117.6 117.6 0 0 1 4.854-21.012 107.4 107.4 0 0 1 7.025-16.564 96.531 96.531 0 0 1 9.3-14.431 84.668 84.668 0 0 1 11.281-11.911 72.944 72.944 0 0 1 12.947-8.991 61.757 61.757 0 0 1 29.665-7.66h49.376a65.046 65.046 0 0 1 28.8 6.787h8.378a63.729 63.729 0 0 1 28.341 6.662 68.01 68.01 0 0 1 12.037 7.808 75.873 75.873 0 0 1 10.5 10.345 83.551 83.551 0 0 1 8.648 12.538 90.09 90.09 0 0 1 6.541 14.387 97.045 97.045 0 0 1 5 22.21l9.533.007s6.708-.393 10.317 1.462l2.777 2.777a11.51 11.51 0 0 1 1.462 5.46l.026.007v9.379a342.778 342.778 0 0 1-8.733 78.076 280.447 280.447 0 0 1-10.246 34.073 222.724 222.724 0 0 1-13.57 29.686 163.767 163.767 0 0 1-16.452 24.492 114.5 114.5 0 0 1-18.874 18.49c-13.7 10.46-28.251 15.762-43.255 15.762zm-95.9-195.768c.764 20.1 1.46 41.111 5.648 59.405 2.577 11.289 4.259 21.366 7.976 31.542a212.665 212.665 0 0 0 12.584 28.17 155.416 155.416 0 0 0 15.243 23.243c5.51 6.874 11.391 15.037 17.5 19.811 12.7 9.93 26.2 14.96 40.1 14.96h67.814c13.908 0 27.4-5.03 40.1-14.96 6.107-4.769 11.991-12.931 17.5-19.811a156.511 156.511 0 0 0 15.247-23.243 214.188 214.188 0 0 0 12.58-28.17c3.721-10.176 6.334-21.066 8.92-32.349 4.143-18.087 5.934-61.266 5.934-61.266v-3.709l-42.131-.036c.239 1.191.573 3.614-.194 5.235-1.052 2.221-1.953 2.935-4.176 2.935s-3.551-.453-4.733-2.935a9.97 9.97 0 0 1-.342-5.243l-182.658-.156c.277 1.794.591 3.589-.235 5.5-1.257 2.93-2.422 3.334-5.035 3.334s-4.052-.987-5.4-3.334c-1.039-1.8-.485-4.4-.167-5.512l-22.167-.019c-.012 2.214.008 4.43.09 6.608zm247.447-23.91c-.614-5.559-1.57-12.143-2.916-16.011a85.973 85.973 0 0 0-5.69-13.662 79.932 79.932 0 0 0-8.016-11.894 70.912 70.912 0 0 0-9.731-9.821 62.987 62.987 0 0 0-11.16-7.409c-6.925-3.581-13.191-6.078-20.4-6.728.572.472 1.153.955 1.722 1.447a84.135 84.135 0 0 1 11.276 11.911 96.3 96.3 0 0 1 9.308 14.431 107.7 107.7 0 0 1 7.027 16.564 117.476 117.476 0 0 1 4.869 21.156zm-32.979-.024a85.684 85.684 0 0 0-2.634-14.018 103.74 103.74 0 0 0-6.116-15.73 92.564 92.564 0 0 0-8.623-13.695 79.505 79.505 0 0 0-10.464-11.3 67.423 67.423 0 0 0-12-8.533 112.994 112.994 0 0 0-4.553-2.4h-30.98c-8.866 0-15.472 2.706-23.57 6.9a62.959 62.959 0 0 0-11.166 7.409 71.4 71.4 0 0 0-9.726 9.821 80.335 80.335 0 0 0-8.021 11.894c-2.372 4.3-3.438 8.555-5.094 13.318a67.663 67.663 0 0 0-3.013 16.234zm-145.678-.1a96.786 96.786 0 0 1 4.994-22.076 91.1 91.1 0 0 1 6.533-14.387 83.486 83.486 0 0 1 8.664-12.538 75.816 75.816 0 0 1 10.48-10.345 68.077 68.077 0 0 1 12.046-7.808 62.7 62.7 0 0 1 9.74-3.955h-22.795c-9.532 0-16.635 3.11-25.346 7.938a67.061 67.061 0 0 0-11.994 8.533 79.188 79.188 0 0 0-10.458 11.3 92.145 92.145 0 0 0-8.633 13.689c-2.552 4.949-3.7 9.848-5.464 15.331a72.441 72.441 0 0 0-2.842 14.286z" data-name="Контур 1292"/><path d="M124.114 162.245s-10.445 5.7-21.4 5.7-22.41-5.7-22.41-5.7-1.89-.248-1.876 1.442 1.876 2.614 1.876 2.614 11.463 7.074 22.414 7.074 21.4-7.074 21.4-7.074 2.063-1.389 1.753-3a1.255 1.255 0 0 0-1.757-1.056z" data-name="Контур 1296"/><path d="M184.591 227.376a37.833 37.833 0 0 1-3.25 3.162c-5.2 4.59-16.941 14.213-32.918 14.213-19.545 0-37.887-18.3-37.887-18.3l-.749-.627a13.24 13.24 0 0 0-1.164-1.028 26.252 26.252 0 0 0-3.635-2.52 5.655 5.655 0 0 0-2.791-.93 3.07 3.07 0 0 0-1.641.256 2.442 2.442 0 0 0-1.2 1.148c-1.993 4.305 3.719 9.656 3.719 9.656s23.188 24.29 45.348 24.29 43.293-24.289 43.293-24.289 7.007-7.502 3.548-10.311-10.673 5.28-10.673 5.28z" data-name="Контур 1297"/><path d="M224.086 162.245s-10.445 5.7-21.4 5.7-22.41-5.7-22.41-5.7-1.89-.248-1.876 1.442 1.876 2.614 1.876 2.614 11.463 7.074 22.414 7.074 21.4-7.074 21.4-7.074 2.063-1.389 1.753-3a1.255 1.255 0 0 0-1.757-1.056z" data-name="Контур 1309"/></g></svg>