<svg xmlns="http://www.w3.org/2000/svg" xmlns:xlink="http://www.w3.org/1999/xlink" width="290.202" height="80.127" viewBox="0 0 290.202 80.127">
  <defs>
    <filter id="Контур_1361" x="30.574" y="0" width="73.002" height="77.711" filterUnits="userSpaceOnUse">
      <feOffset dx="3" dy="3" input="SourceAlpha"/>
      <feGaussianBlur stdDeviation="7.5" result="blur"/>
      <feFlood flood-color="#fff" flood-opacity="0.278"/>
      <feComposite operator="in" in2="blur"/>
      <feComposite in="SourceGraphic"/>
    </filter>
    <filter id="Контур_1362" x="0" y="0" width="71.474" height="78.517" filterUnits="userSpaceOnUse">
      <feOffset dx="3" dy="3" input="SourceAlpha"/>
      <feGaussianBlur stdDeviation="7.5" result="blur-2"/>
      <feFlood flood-color="#fff" flood-opacity="0.278"/>
      <feComposite operator="in" in2="blur-2"/>
      <feComposite in="SourceGraphic"/>
    </filter>
    <filter id="Контур_1364" x="62.675" y="0" width="78.118" height="80.127" filterUnits="userSpaceOnUse">
      <feOffset dx="3" dy="3" input="SourceAlpha"/>
      <feGaussianBlur stdDeviation="7.5" result="blur-3"/>
      <feFlood flood-color="#fff" flood-opacity="0.278"/>
      <feComposite operator="in" in2="blur-3"/>
      <feComposite in="SourceGraphic"/>
    </filter>
    <clipPath id="clip-path">
      <rect id="Прямоугольник_1450" data-name="Прямоугольник 1450" width="92" height="47" rx="23.5" fill="none" stroke="#05ddce" stroke-width="1.5"/>
    </clipPath>
    <linearGradient id="linear-gradient" x1="1.259" y1="0.082" x2="0.072" y2="0.645" gradientUnits="objectBoundingBox">
      <stop offset="0" stop-color="#0eff82"/>
      <stop offset="1" stop-color="#1721aa"/>
    </linearGradient>
    <filter id="Light" x="109.885" y="9.13" width="59.114" height="55.166" filterUnits="userSpaceOnUse">
      <feOffset dx="-3" input="SourceAlpha"/>
      <feGaussianBlur stdDeviation="1.5" result="blur-4"/>
      <feFlood flood-color="#fff" flood-opacity="0.251"/>
      <feComposite operator="in" in2="blur-4"/>
      <feComposite in="SourceGraphic"/>
    </filter>
    <linearGradient id="linear-gradient-2" x1="1" y1="0.5" x2="0.095" y2="1" gradientUnits="objectBoundingBox">
      <stop offset="0" stop-color="#1be17a"/>
      <stop offset="1" stop-color="#00a5ba" stop-opacity="0.678"/>
    </linearGradient>
    <filter id="Прямоугольник_1451" x="115.885" y="9.13" width="59.114" height="55.166" filterUnits="userSpaceOnUse">
      <feOffset dx="3" input="SourceAlpha"/>
      <feGaussianBlur stdDeviation="1.5" result="blur-5"/>
      <feFlood flood-color="#0046ea" flood-opacity="0.251"/>
      <feComposite operator="in" in2="blur-5"/>
      <feComposite in="SourceGraphic"/>
    </filter>
    <filter id="Контур_1367" x="105.487" y="3.755" width="79.911" height="71.916" filterUnits="userSpaceOnUse">
      <feOffset dx="3" dy="3" input="SourceAlpha"/>
      <feGaussianBlur stdDeviation="7.5" result="blur-6"/>
      <feFlood flood-color="#131b88" flood-opacity="0.169"/>
      <feComposite operator="in" in2="blur-6"/>
      <feComposite in="SourceGraphic"/>
    </filter>
  </defs>
  <g id="Сгруппировать_443" data-name="Сгруппировать 443" transform="translate(3943.053 862.563)">
    <g transform="matrix(1, 0, 0, 1, -3943.05, -862.56)" filter="url(#Контур_1361)">
      <path id="Контур_1361-2" data-name="Контур 1361" d="M6.739-.1A3.928,3.928,0,0,1,3.854-1.286,3.928,3.928,0,0,1,2.666-4.171V-28.736a3.928,3.928,0,0,1,1.188-2.885,3.928,3.928,0,0,1,2.885-1.188,3.928,3.928,0,0,1,2.885,1.188,3.928,3.928,0,0,1,1.188,2.885v8.613h11.71v-8.613a3.928,3.928,0,0,1,1.188-2.885,3.928,3.928,0,0,1,2.885-1.188,3.928,3.928,0,0,1,2.885,1.188,3.928,3.928,0,0,1,1.188,2.885V-4.171A3.928,3.928,0,0,1,29.48-1.286,3.928,3.928,0,0,1,26.595-.1,3.928,3.928,0,0,1,23.71-1.286a3.928,3.928,0,0,1-1.188-2.885V-13.5H10.812v9.334A3.928,3.928,0,0,1,9.624-1.286,3.928,3.928,0,0,1,6.739-.1Z" transform="translate(47.41 52.31)" fill="#000879"/>
    </g>
    <g transform="matrix(1, 0, 0, 1, -3943.05, -862.56)" filter="url(#Контур_1362)">
      <path id="Контур_1362-2" data-name="Контур 1362" d="M13.933.278A18.775,18.775,0,0,1,7.569-.74a13.562,13.562,0,0,1-4.752-2.8,3.6,3.6,0,0,1-.806-1.294,4.578,4.578,0,0,1-.3-1.633A3.69,3.69,0,0,1,2.859-9.2a3.745,3.745,0,0,1,2.715-1.124,3.679,3.679,0,0,1,1.867.488A3.844,3.844,0,0,1,8.8-8.546a5.483,5.483,0,0,0,2.206,1.93,7.018,7.018,0,0,0,3.1.658,6.44,6.44,0,0,0,3.818-.933,2.989,2.989,0,0,0,1.273-2.546,2.757,2.757,0,0,0-.849-2.058,6.264,6.264,0,0,0-3.012-1.294l-5.218-1.1A12.651,12.651,0,0,1,3.432-17.18,8.68,8.68,0,0,1,1.247-23.4a8.869,8.869,0,0,1,1.506-5.049,9.942,9.942,0,0,1,4.391-3.521,16.941,16.941,0,0,1,6.873-1.273q6.491,0,10.1,3.394a3.7,3.7,0,0,1,1.061,2.8,3.626,3.626,0,0,1-1.082,2.63,3.522,3.522,0,0,1-2.609,1.1,3.486,3.486,0,0,1-1.8-.488,4.054,4.054,0,0,1-1.336-1.252,4.739,4.739,0,0,0-4.37-2.121,5.636,5.636,0,0,0-3.437.849,2.542,2.542,0,0,0-1.1,2.079,2.842,2.842,0,0,0,.87,2.121,6.452,6.452,0,0,0,3.161,1.315l5.176,1.1q4.752,1.018,6.916,3.394A8.723,8.723,0,0,1,27.721-10.2a10.177,10.177,0,0,1-1.379,5.24,9.724,9.724,0,0,1-4.476,3.8A18.856,18.856,0,0,1,13.933.278Z" transform="translate(18.25 52.74)" fill="#000879"/>
    </g>
    <g transform="matrix(1, 0, 0, 1, -3943.05, -862.56)" filter="url(#Контур_1364)">
      <path id="Контур_1364-2" data-name="Контур 1364" d="M17.8,1.974A17.338,17.338,0,0,1,8.945-.191,14.2,14.2,0,0,1,3.254-6.328,20.709,20.709,0,0,1,1.29-15.612,20.078,20.078,0,0,1,3.3-24.829a14.611,14.611,0,0,1,5.758-6.137,17.228,17.228,0,0,1,8.837-2.187,17.338,17.338,0,0,1,8.86,2.165,14.2,14.2,0,0,1,5.691,6.137,20.6,20.6,0,0,1,1.964,9.239,20.513,20.513,0,0,1-1.986,9.284A14.3,14.3,0,0,1,26.687-.191,17.461,17.461,0,0,1,17.8,1.974Zm.045-6.784a6.567,6.567,0,0,0,5.49-2.678q2.053-2.678,2.053-8.123t-2.053-8.1a6.587,6.587,0,0,0-5.49-2.656,6.587,6.587,0,0,0-5.49,2.656q-2.053,2.656-2.053,8.1t2.053,8.123A6.567,6.567,0,0,0,17.849-4.81Z" transform="translate(80.88 52.65)" fill="#000879"/>
    </g>
    <path id="Контур_1375" data-name="Контур 1375" d="M6.636.336A3.888,3.888,0,0,1,3.78-.84,3.888,3.888,0,0,1,2.6-3.7V-28.014A3.888,3.888,0,0,1,3.78-30.87a3.888,3.888,0,0,1,2.856-1.176A3.888,3.888,0,0,1,9.492-30.87a3.888,3.888,0,0,1,1.176,2.856V-3.7A3.888,3.888,0,0,1,9.492-.84,3.888,3.888,0,0,1,6.636.336Z" transform="translate(-3731.553 -810)" fill="#000879"/>
    <path id="Контур_1376" data-name="Контур 1376" d="M6.3.336A3.6,3.6,0,0,1,3.654-.756a3.555,3.555,0,0,1-1.092-2.6V-26.586a5.324,5.324,0,0,1,.735-2.73,5.453,5.453,0,0,1,2-2,5.324,5.324,0,0,1,2.73-.735,5.253,5.253,0,0,1,2.667.714,5.612,5.612,0,0,1,2,1.932l8.4,13.944a23.557,23.557,0,0,1,1.3,2.478l.5,1.134h.21V-28.392a3.52,3.52,0,0,1,1.071-2.583A3.57,3.57,0,0,1,26.8-32.046a3.52,3.52,0,0,1,2.583,1.071,3.52,3.52,0,0,1,1.071,2.583v23.6a4.93,4.93,0,0,1-1.512,3.612A4.93,4.93,0,0,1,25.326.336a5.075,5.075,0,0,1-2.562-.672,4.975,4.975,0,0,1-1.848-1.806L12.1-16.674q-.462-.756-1.386-2.6a6.5,6.5,0,0,1-.5-1.092H10V-3.36A3.555,3.555,0,0,1,8.9-.756,3.555,3.555,0,0,1,6.3.336Z" transform="translate(-3717.552 -810)" fill="#000879"/>
    <path id="Контур_1377" data-name="Контур 1377" d="M15.2.672a13.847,13.847,0,0,1-7.266-1.89A12.721,12.721,0,0,1,3.024-6.741,19.788,19.788,0,0,1,1.26-15.456a19.435,19.435,0,0,1,1.974-9.03,13.969,13.969,0,0,1,5.523-5.859,16.116,16.116,0,0,1,8.169-2.037,15.988,15.988,0,0,1,6.531,1.239,12.361,12.361,0,0,1,4.6,3.423,3.74,3.74,0,0,1,.8,2.394,3.555,3.555,0,0,1-1.092,2.6,3.555,3.555,0,0,1-2.6,1.092,3.525,3.525,0,0,1-1.869-.525,3.98,3.98,0,0,1-1.365-1.365A5.5,5.5,0,0,0,19.929-25.6a5.92,5.92,0,0,0-3-.693,6.485,6.485,0,0,0-5.292,2.562q-2.058,2.562-2.058,7.77,0,5.25,2.058,7.854a6.368,6.368,0,0,0,5.208,2.6,6.286,6.286,0,0,0,4.809-1.806,6.141,6.141,0,0,0,1.7-4.368v-.336H18.984a2.666,2.666,0,0,1-1.953-.819,2.715,2.715,0,0,1-.819-1.995,2.666,2.666,0,0,1,.819-1.953,2.666,2.666,0,0,1,1.953-.819h8.148a3.581,3.581,0,0,1,2.646.924,3.581,3.581,0,0,1,.924,2.646V-2.94a3.152,3.152,0,0,1-.966,2.31,3.152,3.152,0,0,1-2.31.966,3.226,3.226,0,0,1-2.1-.756,3.112,3.112,0,0,1-1.134-1.89l-.21-1.134h-.21a9.175,9.175,0,0,1-3.4,3.108A11.383,11.383,0,0,1,15.2.672Z" transform="translate(-3683.553 -810)" fill="#000879"/>
    <g id="Компонент_75_5" data-name="Компонент 75 – 5" transform="translate(-3825.955 -849)">
      <g id="Passive_hover_" data-name="Passive hover ">
        <g id="Группа_масок_2" data-name="Группа масок 2" clip-path="url(#clip-path)">
          <g id="Light-2" data-name="Light" fill="none" stroke="#fff" stroke-width="2">
            <rect width="92" height="44" rx="22" stroke="none"/>
            <rect x="1" y="1" width="90" height="42" rx="21" fill="none"/>
          </g>
          <g id="Dark" fill="none" stroke="rgba(0,70,234,0.65)" stroke-width="2">
            <rect width="92" height="57" rx="28.5" stroke="none"/>
            <rect x="1" y="1" width="90" height="55" rx="27.5" fill="none"/>
          </g>
        </g>
      </g>
      <g id="Active_hover" data-name="Active hover" transform="translate(1)">
        <g transform="matrix(1, 0, 0, 1, -118.1, -13.56)" filter="url(#Light)">
          <rect id="Light-3" data-name="Light" width="50.114" height="46.166" rx="23.083" transform="translate(117.39 13.63)" fill="url(#linear-gradient)"/>
        </g>
        <g transform="matrix(1, 0, 0, 1, -118.1, -13.56)" filter="url(#Прямоугольник_1451)">
          <rect id="Прямоугольник_1451-2" data-name="Прямоугольник 1451" width="50.114" height="46.166" rx="23.083" transform="translate(117.39 13.63)" fill="url(#linear-gradient-2)"/>
        </g>
      </g>
      <g transform="matrix(1, 0, 0, 1, -117.1, -13.56)" filter="url(#Контур_1367)">
        <path id="Контур_1367-2" data-name="Контур 1367" d="M10.111-5.893A4.742,4.742,0,0,1,6.987-7.01,5,5,0,0,1,5.259-9.8L.93-28.864a5.668,5.668,0,0,1-.07-.7,3.134,3.134,0,0,1,.943-2.3,3.093,3.093,0,0,1,2.269-.943,3.168,3.168,0,0,1,2.042.716,3.15,3.15,0,0,1,1.135,1.833l3.526,16.652,4.259-16.478a3.391,3.391,0,0,1,1.274-1.955,3.589,3.589,0,0,1,2.252-.768,3.468,3.468,0,0,1,2.234.785,3.494,3.494,0,0,1,1.257,1.938l4.224,16.338,3.561-16.687a2.884,2.884,0,0,1,1.047-1.693,2.912,2.912,0,0,1,1.885-.681,2.9,2.9,0,0,1,2.13.873,2.9,2.9,0,0,1,.873,2.13,4.275,4.275,0,0,1-.07.663L31.337-9.8A4.928,4.928,0,0,1,29.574-7.01a4.878,4.878,0,0,1-3.159,1.117,4.907,4.907,0,0,1-3.107-1.065,4.889,4.889,0,0,1-1.78-2.706L18.245-22.615,14.964-9.663A4.845,4.845,0,0,1,13.2-6.94,4.888,4.888,0,0,1,10.111-5.893Z" transform="translate(124.13 56.06)" fill="#fff"/>
      </g>
      <path id="Контур_1368" data-name="Контур 1368" d="M5.317-12a2.531,2.531,0,0,1-1.847-.751,2.468,2.468,0,0,1-.761-1.824V-30.185a2.27,2.27,0,0,1,.6-1.69,2.333,2.333,0,0,1,1.711-.59H11.1a10.012,10.012,0,0,1,4.169.818,6.339,6.339,0,0,1,2.811,2.4,6.909,6.909,0,0,1,1.005,3.783,6.947,6.947,0,0,1-.991,3.742,6.478,6.478,0,0,1-2.8,2.455,9.743,9.743,0,0,1-4.224.858H7.924v3.836a2.468,2.468,0,0,1-.761,1.824A2.531,2.531,0,0,1,5.317-12Zm5.025-10.355a4.319,4.319,0,0,0,2.648-.724,2.7,2.7,0,0,0,.964-2.307,2.846,2.846,0,0,0-.964-2.374,4.107,4.107,0,0,0-2.621-.765H7.924v6.17Z" transform="translate(58.277 45.73)" fill="#000879"/>
    </g>
  </g>
</svg>
