<svg xmlns="http://www.w3.org/2000/svg" viewBox="0 0 522.423 531.244"><g fill="#fff" transform="translate(-2099.174 721.384)"><path d="M2295.696-190.14c-26.531 0-52.26-9.378-76.486-27.875a203.154 203.154 0 0 1-33.385-32.7 290.822 290.822 0 0 1-29.084-43.312 391.627 391.627 0 0 1-24-52.5 494.146 494.146 0 0 1-18.121-60.254c-10.246-43.727-15.443-90.185-15.443-138.07v-21.164s-.014-.29.006-.779v-.051c.072-1.989.533-7.057 3.277-9.619 3.461-3.233 10.549-2.48 10.549-2.48l54.438.039a207.9 207.9 0 0 1 8.582-37.157 190.106 190.106 0 0 1 12.426-29.292 170.733 170.733 0 0 1 16.449-25.52 149.981 149.981 0 0 1 19.949-21.063 129.1 129.1 0 0 1 22.9-15.9 109.2 109.2 0 0 1 52.461-13.547h87.314a115 115 0 0 1 50.924 12h14.816a112.7 112.7 0 0 1 50.119 11.781 120.351 120.351 0 0 1 21.287 13.807 134.246 134.246 0 0 1 18.559 18.293 147.4 147.4 0 0 1 15.3 22.172 159.464 159.464 0 0 1 11.568 25.443 171.653 171.653 0 0 1 8.848 39.276l16.859.012s11.865-.695 18.246 2.586l4.912 4.911a20.366 20.366 0 0 1 2.584 9.656l.047.012v16.589c0 47.885-5.193 94.343-15.441 138.07a496.92 496.92 0 0 1-18.119 60.254 394.03 394.03 0 0 1-24 52.5 289.659 289.659 0 0 1-29.094 43.312 202.5 202.5 0 0 1-33.377 32.7c-24.232 18.5-49.959 27.875-76.49 27.875zm-169.592-346.2c1.352 35.545 2.58 72.7 9.986 105.052 4.561 19.963 7.529 37.784 14.1 55.778a376.694 376.694 0 0 0 22.252 49.815 274.89 274.89 0 0 0 26.961 41.1c9.74 12.157 20.141 26.591 30.939 35.033 22.467 17.56 46.33 26.456 70.91 26.456h119.922c24.6 0 48.455-8.9 70.92-26.456 10.8-8.433 21.205-22.867 30.953-35.033a276.474 276.474 0 0 0 26.961-41.1 378.987 378.987 0 0 0 22.248-49.815c6.576-17.995 11.2-37.253 15.775-57.206 7.324-31.985 10.492-108.343 10.492-108.343v-6.559l-74.506-.064c.422 2.105 1.014 6.391-.344 9.257-1.861 3.927-3.453 5.191-7.385 5.191s-6.277-.8-8.373-5.191c-1.25-2.634-1.006-6.555-.6-9.272l-323.014-.276c.492 3.172 1.045 6.346-.412 9.73-2.225 5.181-4.283 5.9-8.9 5.9s-7.168-1.746-9.559-5.9c-1.836-3.183-.855-7.778-.293-9.747l-39.2-.034c-.016 3.917.019 7.836.167 11.688zm437.586-42.283c-1.09-9.83-2.779-21.474-5.158-28.314-2.908-8.423-5.863-16.557-10.062-24.16a141.265 141.265 0 0 0-14.176-21.034 125.446 125.446 0 0 0-17.207-17.367 111.386 111.386 0 0 0-19.736-13.1c-12.246-6.333-23.326-10.749-36.084-11.9 1.014.835 2.041 1.688 3.045 2.559a149.048 149.048 0 0 1 19.943 21.063 170.872 170.872 0 0 1 16.459 25.52 190.682 190.682 0 0 1 12.426 29.292 207.645 207.645 0 0 1 8.609 37.412zm-58.322-.042c-1.146-9.22-2.676-18.675-4.654-24.789-3.137-9.706-6.311-19.065-10.816-27.816a163.639 163.639 0 0 0-15.252-24.218 140.35 140.35 0 0 0-18.5-19.982 119.3 119.3 0 0 0-21.223-15.09 190.72 190.72 0 0 0-8.053-4.236h-54.785c-15.68 0-27.357 4.786-41.682 12.2a111.317 111.317 0 0 0-19.746 13.1 126.4 126.4 0 0 0-17.2 17.367 142.049 142.049 0 0 0-14.182 21.034c-4.2 7.6-6.082 15.129-9.008 23.552-3.086 8.956-4.486 18.777-5.326 28.707zm-257.613-.185a170.98 170.98 0 0 1 8.83-39.039 160.969 160.969 0 0 1 11.553-25.443 147.831 147.831 0 0 1 15.322-22.172 134.077 134.077 0 0 1 18.533-18.293 120.4 120.4 0 0 1 21.3-13.807 110.763 110.763 0 0 1 17.225-6.995h-40.3c-16.861 0-29.42 5.5-44.822 14.038a118.458 118.458 0 0 0-21.213 15.09 139.852 139.852 0 0 0-18.494 19.982 163.092 163.092 0 0 0-15.271 24.218c-4.514 8.751-6.541 17.416-9.662 27.112a128.275 128.275 0 0 0-5.023 25.264z" data-name="Контур 1292"/><path d="M2318.336-413.755s-21.037-.503-37.808-10.186-29.282-28.543-29.282-28.543-2.674-2.05-4.148.55.562 5.662.562 5.662 11.296 20.961 28.068 30.644 39.021 8.085 39.021 8.085 4.388-.303 5.34-3.047a2.22 2.22 0 0 0-1.753-3.165z" data-name="Контур 1296"/><path d="M2498.172-413.755s-21.037-.503-37.808-10.186-29.282-28.543-29.282-28.543-2.674-2.05-4.148.55.562 5.662.562 5.662 11.296 20.961 28.068 30.644 39.021 8.085 39.021 8.085 4.388-.303 5.34-3.047a2.22 2.22 0 0 0-1.753-3.165z" data-name="Контур 1380"/><path d="M2301.09-457.816s-9.34 18.858-25.2 29.975-38.242 14.493-38.242 14.493-2.988 1.56-1.254 3.993 5.37 1.882 5.37 1.882 23.774-1.39 39.636-12.506 23.807-31.963 23.807-31.963 1.578-4.105-.508-6.127a2.22 2.22 0 0 0-3.61.253z" data-name="Контур 1378"/><path d="M2480.926-457.816s-9.34 18.858-25.2 29.975-38.242 14.493-38.242 14.493-2.988 1.56-1.254 3.993 5.37 1.882 5.37 1.882 23.774-1.39 39.636-12.506 23.807-31.963 23.807-31.963 1.578-4.105-.508-6.127a2.22 2.22 0 0 0-3.61.253z" data-name="Контур 1379"/><path d="M2425.605-319.291a66.9 66.9 0 0 1-5.748 5.592c-9.2 8.117-29.958 25.134-58.212 25.134-34.563 0-67-32.363-67-32.363l-1.324-1.109a23.41 23.41 0 0 0-2.058-1.813 46.426 46.426 0 0 0-6.428-4.456c-2.841-1.525-4.033-1.627-4.935-1.645a5.429 5.429 0 0 0-2.9.453 4.319 4.319 0 0 0-2.119 2.03c-3.525 7.614 6.576 17.075 6.576 17.075s41.002 42.951 80.189 42.951 76.56-42.952 76.56-42.952 12.39-13.267 6.27-18.229-18.871 9.332-18.871 9.332z" data-name="Контур 1297"/><ellipse cx="15.5" cy="18" data-name="Эллипс 25" rx="15.5" ry="18" transform="rotate(-31 674.938 -4452.46)"/></g></svg>