<svg xmlns="http://www.w3.org/2000/svg" xmlns:xlink="http://www.w3.org/1999/xlink" width="140.793" height="80.127" viewBox="0 0 140.793 80.127"><defs><filter id="a" x="30.574" y="0" width="73.002" height="77.711" filterUnits="userSpaceOnUse"><feOffset dx="3" dy="3" input="SourceAlpha"/><feGaussianBlur stdDeviation="7.5" result="b"/><feFlood flood-color="#fff" flood-opacity="0.278"/><feComposite operator="in" in2="b"/><feComposite in="SourceGraphic"/></filter><filter id="c" x="0" y="0" width="71.474" height="78.517" filterUnits="userSpaceOnUse"><feOffset dx="3" dy="3" input="SourceAlpha"/><feGaussianBlur stdDeviation="7.5" result="d"/><feFlood flood-color="#fff" flood-opacity="0.278"/><feComposite operator="in" in2="d"/><feComposite in="SourceGraphic"/></filter><filter id="e" x="62.675" y="0" width="78.118" height="80.127" filterUnits="userSpaceOnUse"><feOffset dx="3" dy="3" input="SourceAlpha"/><feGaussianBlur stdDeviation="7.5" result="f"/><feFlood flood-color="#fff" flood-opacity="0.278"/><feComposite operator="in" in2="f"/><feComposite in="SourceGraphic"/></filter></defs><g transform="translate(3943.053 862.563)"><g transform="matrix(1, 0, 0, 1, -3943.05, -862.56)" filter="url(#a)"><path d="M6.739-.1A3.928,3.928,0,0,1,3.854-1.286,3.928,3.928,0,0,1,2.666-4.171V-28.736a3.928,3.928,0,0,1,1.188-2.885,3.928,3.928,0,0,1,2.885-1.188,3.928,3.928,0,0,1,2.885,1.188,3.928,3.928,0,0,1,1.188,2.885v8.613h11.71v-8.613a3.928,3.928,0,0,1,1.188-2.885,3.928,3.928,0,0,1,2.885-1.188,3.928,3.928,0,0,1,2.885,1.188,3.928,3.928,0,0,1,1.188,2.885V-4.171A3.928,3.928,0,0,1,29.48-1.286,3.928,3.928,0,0,1,26.595-.1,3.928,3.928,0,0,1,23.71-1.286a3.928,3.928,0,0,1-1.188-2.885V-13.5H10.812v9.334A3.928,3.928,0,0,1,9.624-1.286,3.928,3.928,0,0,1,6.739-.1Z" transform="translate(47.41 52.31)" fill="#000879"/></g><g transform="matrix(1, 0, 0, 1, -3943.05, -862.56)" filter="url(#c)"><path d="M13.933.278A18.775,18.775,0,0,1,7.569-.74a13.562,13.562,0,0,1-4.752-2.8,3.6,3.6,0,0,1-.806-1.294,4.578,4.578,0,0,1-.3-1.633A3.69,3.69,0,0,1,2.859-9.2a3.745,3.745,0,0,1,2.715-1.124,3.679,3.679,0,0,1,1.867.488A3.844,3.844,0,0,1,8.8-8.546a5.483,5.483,0,0,0,2.206,1.93,7.018,7.018,0,0,0,3.1.658,6.44,6.44,0,0,0,3.818-.933,2.989,2.989,0,0,0,1.273-2.546,2.757,2.757,0,0,0-.849-2.058,6.264,6.264,0,0,0-3.012-1.294l-5.218-1.1A12.651,12.651,0,0,1,3.432-17.18,8.68,8.68,0,0,1,1.247-23.4a8.869,8.869,0,0,1,1.506-5.049,9.942,9.942,0,0,1,4.391-3.521,16.941,16.941,0,0,1,6.873-1.273q6.491,0,10.1,3.394a3.7,3.7,0,0,1,1.061,2.8,3.626,3.626,0,0,1-1.082,2.63,3.522,3.522,0,0,1-2.609,1.1,3.486,3.486,0,0,1-1.8-.488,4.054,4.054,0,0,1-1.336-1.252,4.739,4.739,0,0,0-4.37-2.121,5.636,5.636,0,0,0-3.437.849,2.542,2.542,0,0,0-1.1,2.079,2.842,2.842,0,0,0,.87,2.121,6.452,6.452,0,0,0,3.161,1.315l5.176,1.1q4.752,1.018,6.916,3.394A8.723,8.723,0,0,1,27.721-10.2a10.177,10.177,0,0,1-1.379,5.24,9.724,9.724,0,0,1-4.476,3.8A18.856,18.856,0,0,1,13.933.278Z" transform="translate(18.25 52.74)" fill="#000879"/></g><g transform="matrix(1, 0, 0, 1, -3943.05, -862.56)" filter="url(#e)"><path d="M17.8,1.974A17.338,17.338,0,0,1,8.945-.191,14.2,14.2,0,0,1,3.254-6.328,20.709,20.709,0,0,1,1.29-15.612,20.078,20.078,0,0,1,3.3-24.829a14.611,14.611,0,0,1,5.758-6.137,17.228,17.228,0,0,1,8.837-2.187,17.338,17.338,0,0,1,8.86,2.165,14.2,14.2,0,0,1,5.691,6.137,20.6,20.6,0,0,1,1.964,9.239,20.513,20.513,0,0,1-1.986,9.284A14.3,14.3,0,0,1,26.687-.191,17.461,17.461,0,0,1,17.8,1.974Zm.045-6.784a6.567,6.567,0,0,0,5.49-2.678q2.053-2.678,2.053-8.123t-2.053-8.1a6.587,6.587,0,0,0-5.49-2.656,6.587,6.587,0,0,0-5.49,2.656q-2.053,2.656-2.053,8.1t2.053,8.123A6.567,6.567,0,0,0,17.849-4.81Z" transform="translate(80.88 52.65)" fill="#000879"/></g></g></svg>