<svg xmlns="http://www.w3.org/2000/svg" viewBox="0 0 314.345 317.782"><g fill="#fff" opacity=".8"><path d="M153.101 297.114c-13.125 2.79-26.838.856-40.772-5.749a102.642 102.642 0 0 1-19.955-12.668 146.514 146.514 0 0 1-18.946-18.37 198.125 198.125 0 0 1-17.393-23.448 249.772 249.772 0 0 1-15.301-27.907 306.6 306.6 0 0 1-22.163-66.687l-.336-1.58-1.89-8.893s-.037-.142-.077-.387l-.005-.025c-.175-.991-.482-3.546.606-5.104 1.376-1.964 4.96-2.336 4.96-2.336l26.936-5.705a105.7 105.7 0 0 1 .342-19.287 96.536 96.536 0 0 1 3.063-15.8 86.674 86.674 0 0 1 5.46-14.358 75.711 75.711 0 0 1 7.654-12.519 65.359 65.359 0 0 1 9.657-10.275A55.237 55.237 0 0 1 99.47 33.797l43.202-9.183a58.169 58.169 0 0 1 26.458.583l7.336-1.559a57.007 57.007 0 0 1 26.035.558 60.814 60.814 0 0 1 11.983 4.593 68.045 68.045 0 0 1 11.113 7.098 74.88 74.88 0 0 1 9.893 9.362 80.171 80.171 0 0 1 8.4 11.372 86.834 86.834 0 0 1 8.511 18.501l8.342-1.767s5.796-1.592 9.3-.64l2.946 1.914a10.222 10.222 0 0 1 2.287 4.507l.024.001 1.744 8.206a306.6 306.6 0 0 1 6.882 69.935 251.855 251.855 0 0 1-2.625 31.717 199.314 199.314 0 0 1-6.357 28.498 146.67 146.67 0 0 1-9.839 24.49 102.361 102.361 0 0 1-13.075 19.688c-10.045 11.7-21.784 19.045-34.912 21.836zM32.787 143.662c4.41 17.443 8.924 35.699 15.988 50.927 4.357 9.4 7.704 17.902 12.843 26.114a190.722 190.722 0 0 0 16.252 22.31 139.068 139.068 0 0 0 17.661 17.5c6.1 4.99 12.763 11.037 18.995 14.079 12.961 6.325 25.702 8.218 37.861 5.633l59.34-12.613c12.169-2.586 23.036-9.497 32.304-20.547 4.46-5.31 8.088-13.545 11.632-20.59a140.021 140.021 0 0 0 9.016-23.17 192 192 0 0 0 5.77-26.99c1.36-9.592 1.622-19.608 1.789-29.962.255-16.594-6.203-54.706-6.203-54.706l-.69-3.246-36.872 7.805a8.378 8.378 0 0 1 .803 4.616c-.505 2.138-1.161 2.931-3.106 3.345s-3.19.264-4.688-1.689a8.954 8.954 0 0 1-1.275-4.523l-159.84 33.832a8.445 8.445 0 0 1 .815 4.858c-.555 2.798-1.502 3.368-3.787 3.854s-3.728-.11-5.345-1.913c-1.246-1.38-1.244-3.757-1.17-4.791L31.482 137.9c.396 1.937.827 3.873 1.305 5.762zm212.056-66.938c-1.574-4.749-3.627-10.334-5.531-13.467a77 77 0 0 0-7.516-10.896 71.293 71.293 0 0 0-9.231-8.915 63.173 63.173 0 0 0-10.337-6.784 56.254 56.254 0 0 0-11.142-4.408c-6.723-1.842-12.672-2.864-19.104-2.092.59.306 1.188.62 1.774.945a75.487 75.487 0 0 1 12.085 8.324 86.321 86.321 0 0 1 10.824 10.896 96.173 96.173 0 0 1 9.23 13.187 105.159 105.159 0 0 1 8.196 17.604zm-28.86 6.112a77.163 77.163 0 0 0-4.912-11.775 92.626 92.626 0 0 0-8.273-12.625 82.636 82.636 0 0 0-10.095-10.378 71.258 71.258 0 0 0-11.254-7.941 60.452 60.452 0 0 0-12.086-5.234 97.948 97.948 0 0 0-4.429-1.25l-27.11 5.762c-7.76 1.65-13.032 5.245-19.338 10.418a56.212 56.212 0 0 0-8.39 8.559 63.658 63.658 0 0 0-6.683 10.402 71.283 71.283 0 0 0-4.805 11.898c-1.281 4.204-1.42 8.125-1.985 12.6a60.618 60.618 0 0 0 .385 14.765zm-127.478 27a86.584 86.584 0 0 1 .262-20.242A81.543 81.543 0 0 1 91.81 75.79a74.622 74.622 0 0 1 5.247-12.58 67.711 67.711 0 0 1 7.248-11 60.858 60.858 0 0 1 9.084-9.072 56.079 56.079 0 0 1 7.789-5.272l-19.946 4.24c-8.338 1.772-13.975 5.814-20.696 11.657a59.809 59.809 0 0 0-8.91 9.698 70.906 70.906 0 0 0-7.05 11.83 82.673 82.673 0 0 0-5.009 13.59c-1.309 4.803-1.403 9.303-1.925 14.429a65 65 0 0 0 .168 13.029z" data-name="Контур 1292"/><path d="M138.764 173.814s-8.078 6.931-17.659 8.968-20.668-.82-20.668-.82-1.7.133-1.373 1.61a3.04 3.04 0 0 0 2.127 1.938s11.345 4.058 20.927 2.021 17.401-10.167 17.401-10.167 1.55-1.6.98-2.954a1.123 1.123 0 0 0-1.735-.596z" data-name="Контур 1296"/><path d="M203.795 219.552a33.841 33.841 0 0 1-2.256 3.369c-3.697 4.983-12.179 15.585-26.158 18.557-17.101 3.635-36.552-8.966-36.552-8.966l-.772-.41a11.843 11.843 0 0 0-1.21-.68 23.484 23.484 0 0 0-3.649-1.529 5.058 5.058 0 0 0-2.618-.294 2.746 2.746 0 0 0-1.387.529 2.184 2.184 0 0 0-.835 1.227c-.944 4.138 5.049 7.757 5.049 7.757s24.808 16.94 44.196 12.82 33.361-29.303 33.361-29.303 4.735-7.867 1.188-9.679-8.357 6.602-8.357 6.602z" data-name="Контур 1297"/><path d="M226.234 155.222s-8.078 6.931-17.66 8.968-20.667-.821-20.667-.821-1.7.134-1.374 1.61a3.04 3.04 0 0 0 2.128 1.938s11.345 4.058 20.926 2.022 17.402-10.167 17.402-10.167 1.55-1.6.98-2.954a1.123 1.123 0 0 0-1.735-.596z" data-name="Контур 1309"/></g></svg>