<svg xmlns="http://www.w3.org/2000/svg" width="24.125" height="30.149" viewBox="0 0 24.125 30.149"><path d="M6.55-2.316A3.728,3.728,0,0,1,3.829-3.422a3.635,3.635,0,0,1-1.12-2.687v-23a3.344,3.344,0,0,1,.88-2.489,3.436,3.436,0,0,1,2.521-.869h8.962a14.746,14.746,0,0,1,6.141,1.205,9.337,9.337,0,0,1,4.141,3.536,10.176,10.176,0,0,1,1.48,5.571,10.232,10.232,0,0,1-1.46,5.512,9.541,9.541,0,0,1-4.121,3.616,14.35,14.35,0,0,1-6.221,1.264H10.391v5.65A3.635,3.635,0,0,1,9.27-3.422,3.728,3.728,0,0,1,6.55-2.316Zm7.4-15.252a6.362,6.362,0,0,0,3.9-1.067,3.973,3.973,0,0,0,1.42-3.4,4.191,4.191,0,0,0-1.42-3.5,6.05,6.05,0,0,0-3.861-1.126h-3.6v9.088Z" transform="translate(-2.709 32.465)" fill="#fff"/></svg>