<svg xmlns="http://www.w3.org/2000/svg" viewBox="0 0 1920 1141"><defs><filter id="a" width="112" height="111" x="254" y="1030" filterUnits="userSpaceOnUse"><feOffset dy="3"/><feGaussianBlur result="blur" stdDeviation="3"/><feFlood flood-opacity=".161"/><feComposite in2="blur" operator="in"/><feComposite in="SourceGraphic"/></filter><filter id="b" width="134" height="133" x="1640" y="875" filterUnits="userSpaceOnUse"><feOffset dy="3"/><feGaussianBlur result="blur-2" stdDeviation="3"/><feFlood flood-opacity=".161"/><feComposite in2="blur-2" operator="in"/><feComposite in="SourceGraphic"/></filter></defs><g data-name="Сгруппировать 472"><path fill="none" d="M0 0h1920v1080H0z"/><g data-name="Background Elements 6"><g filter="url(#a)"><rect width="94" height="93" fill="#23286c" data-name="BlueCircle6" opacity=".36" rx="46.5" transform="translate(263 1036)"/></g><g filter="url(#b)"><rect width="116" height="115" fill="#00c691" data-name="GreenCircle6" rx="57.5" transform="translate(1649 881)"/></g><g fill="#fff" opacity=".8"><path d="M237.887 993.603c-13.125 2.79-26.838.856-40.772-5.749a102.642 102.642 0 0 1-19.955-12.668 146.514 146.514 0 0 1-18.946-18.37 198.125 198.125 0 0 1-17.393-23.448 249.772 249.772 0 0 1-15.301-27.907 306.6 306.6 0 0 1-22.163-66.687l-.336-1.58-1.89-8.893s-.037-.142-.077-.387l-.005-.025c-.175-.991-.482-3.546.606-5.104 1.376-1.964 4.96-2.336 4.96-2.336l26.936-5.705a105.7 105.7 0 0 1 .342-19.287 96.536 96.536 0 0 1 3.063-15.8 86.674 86.674 0 0 1 5.46-14.358 75.711 75.711 0 0 1 7.654-12.519 65.359 65.359 0 0 1 9.657-10.275 55.237 55.237 0 0 1 24.529-12.219l43.202-9.183a58.169 58.169 0 0 1 26.458.583l7.336-1.559a57.007 57.007 0 0 1 26.035.558 60.814 60.814 0 0 1 11.983 4.593 68.045 68.045 0 0 1 11.113 7.098 74.88 74.88 0 0 1 9.893 9.362 80.171 80.171 0 0 1 8.4 11.372 86.834 86.834 0 0 1 8.511 18.501l8.342-1.767s5.796-1.592 9.3-.64l2.946 1.914a10.222 10.222 0 0 1 2.287 4.507l.024.001 1.744 8.206a306.6 306.6 0 0 1 6.882 69.935 251.855 251.855 0 0 1-2.625 31.717 199.314 199.314 0 0 1-6.357 28.498 146.67 146.67 0 0 1-9.839 24.49 102.361 102.361 0 0 1-13.075 19.688c-10.045 11.7-21.784 19.045-34.912 21.836zM117.573 840.15c4.41 17.443 8.924 35.699 15.988 50.927 4.357 9.4 7.704 17.902 12.843 26.114a190.722 190.722 0 0 0 16.252 22.31 139.068 139.068 0 0 0 17.661 17.5c6.1 4.99 12.763 11.037 18.995 14.079 12.961 6.325 25.702 8.218 37.861 5.633l59.34-12.613c12.169-2.586 23.036-9.497 32.304-20.547 4.46-5.31 8.088-13.545 11.632-20.59a140.021 140.021 0 0 0 9.016-23.17 192 192 0 0 0 5.77-26.99c1.36-9.592 1.622-19.608 1.789-29.962.255-16.594-6.203-54.706-6.203-54.706l-.69-3.246-36.872 7.805a8.378 8.378 0 0 1 .803 4.616c-.505 2.138-1.161 2.931-3.106 3.345s-3.19.264-4.688-1.689a8.954 8.954 0 0 1-1.275-4.523l-159.84 33.832a8.445 8.445 0 0 1 .815 4.858c-.555 2.798-1.502 3.368-3.787 3.854s-3.728-.11-5.345-1.913c-1.246-1.38-1.244-3.757-1.17-4.791l-19.398 4.106c.396 1.937.827 3.873 1.305 5.762zm212.056-66.938c-1.574-4.749-3.627-10.334-5.531-13.467a77 77 0 0 0-7.516-10.896 71.293 71.293 0 0 0-9.231-8.915 63.173 63.173 0 0 0-10.337-6.784 56.254 56.254 0 0 0-11.142-4.408c-6.723-1.842-12.672-2.864-19.104-2.092.59.306 1.188.62 1.774.945a75.487 75.487 0 0 1 12.085 8.324 86.321 86.321 0 0 1 10.824 10.896 96.173 96.173 0 0 1 9.23 13.187 105.159 105.159 0 0 1 8.196 17.604zm-28.86 6.112a77.163 77.163 0 0 0-4.912-11.775 92.626 92.626 0 0 0-8.273-12.625 82.636 82.636 0 0 0-10.095-10.378 71.258 71.258 0 0 0-11.254-7.941 60.452 60.452 0 0 0-12.086-5.234 97.948 97.948 0 0 0-4.429-1.25l-27.11 5.762c-7.76 1.65-13.032 5.245-19.338 10.418a56.212 56.212 0 0 0-8.39 8.559 63.658 63.658 0 0 0-6.683 10.402 71.283 71.283 0 0 0-4.805 11.898c-1.281 4.204-1.42 8.125-1.985 12.6a60.618 60.618 0 0 0 .385 14.765zm-127.478 27a86.584 86.584 0 0 1 .262-20.242 81.543 81.543 0 0 1 3.044-13.804 74.622 74.622 0 0 1 5.247-12.58 67.711 67.711 0 0 1 7.248-11 60.858 60.858 0 0 1 9.084-9.072 56.079 56.079 0 0 1 7.789-5.272l-19.946 4.24c-8.338 1.772-13.975 5.814-20.696 11.657a59.809 59.809 0 0 0-8.91 9.698 70.906 70.906 0 0 0-7.05 11.83 82.673 82.673 0 0 0-5.009 13.59c-1.309 4.803-1.403 9.303-1.925 14.429a65 65 0 0 0 .168 13.029z" data-name="Контур 1292"/><path d="M223.55 870.303s-8.078 6.931-17.659 8.968-20.668-.82-20.668-.82-1.7.133-1.373 1.61a3.04 3.04 0 0 0 2.127 1.938s11.345 4.058 20.927 2.021 17.401-10.167 17.401-10.167 1.55-1.6.98-2.954a1.123 1.123 0 0 0-1.735-.596z" data-name="Контур 1296"/><path d="M288.581 916.041a33.841 33.841 0 0 1-2.256 3.369c-3.697 4.983-12.179 15.585-26.158 18.557-17.101 3.635-36.552-8.966-36.552-8.966l-.772-.41a11.843 11.843 0 0 0-1.21-.68 23.484 23.484 0 0 0-3.649-1.529 5.058 5.058 0 0 0-2.618-.294 2.746 2.746 0 0 0-1.387.529 2.184 2.184 0 0 0-.835 1.227c-.944 4.138 5.049 7.757 5.049 7.757s24.808 16.94 44.196 12.82 33.361-29.303 33.361-29.303 4.735-7.867 1.188-9.679-8.357 6.602-8.357 6.602z" data-name="Контур 1297"/><path d="M311.02 851.711s-8.078 6.931-17.66 8.968-20.667-.821-20.667-.821-1.7.134-1.374 1.61a3.04 3.04 0 0 0 2.128 1.938s11.345 4.058 20.926 2.022 17.402-10.167 17.402-10.167 1.55-1.6.98-2.954a1.123 1.123 0 0 0-1.735-.596z" data-name="Контур 1309"/></g><g fill="#fff" data-name="LogoIcon" opacity=".8"><path d="M1744.076 150.095a17.685 17.685 0 0 1-8.962-7.263 28.77 28.77 0 0 1-2.964-5.922 41.113 41.113 0 0 1-1.9-7.145 55.426 55.426 0 0 1-.792-8.142 69.815 69.815 0 0 1 .353-8.91 85.855 85.855 0 0 1 4.3-19.213l.148-.428.83-2.409.035-.104.002-.006a2.118 2.118 0 0 1 .882-1.138 2.242 2.242 0 0 1 1.532.156l7.292 2.517a29.582 29.582 0 0 1 2.864-4.583 27.091 27.091 0 0 1 3.017-3.351 24.255 24.255 0 0 1 3.377-2.664 21.165 21.165 0 0 1 3.644-1.902 18.359 18.359 0 0 1 3.802-1.074 15.477 15.477 0 0 1 7.655.605l11.7 4.029a16.3 16.3 0 0 1 6.27 3.957l1.985.683a15.973 15.973 0 0 1 6.17 3.89 17.076 17.076 0 0 1 2.216 2.833 19.065 19.065 0 0 1 1.644 3.308 21.012 21.012 0 0 1 1.025 3.676 22.382 22.382 0 0 1 .376 3.943 24.3 24.3 0 0 1-.625 5.672l2.26.778a6.374 6.374 0 0 1 2.325 1.188l.434.89a2.858 2.858 0 0 1-.1 1.412l.007.002-.765 2.222a85.91 85.91 0 0 1-8.439 17.789 70.333 70.333 0 0 1-5.207 7.238 55.593 55.593 0 0 1-5.637 5.928 41.042 41.042 0 0 1-5.897 4.461 28.669 28.669 0 0 1-5.98 2.842 17.694 17.694 0 0 1-11.535.206zm-6.75-54.213c-1.46 4.825-3.01 9.858-3.51 14.537a64.307 64.307 0 0 0-.681 8.121 53.439 53.439 0 0 0 .684 7.702 38.987 38.987 0 0 0 1.715 6.752 31.822 31.822 0 0 0 2.53 6.122 16.168 16.168 0 0 0 8.28 6.816l16.074 5.535a16.169 16.169 0 0 0 10.724-.273 31.7 31.7 0 0 0 5.765-3.266 39.2 39.2 0 0 0 5.508-4.264 53.693 53.693 0 0 0 5.28-5.649 67.835 67.835 0 0 0 4.753-6.937c2.457-3.948 6.404-14.034 6.404-14.034l.303-.879-9.982-3.447a2.337 2.337 0 0 1-.473 1.225c-.431.44-.701.537-1.229.355a1.1 1.1 0 0 1-.882-1.082 2.507 2.507 0 0 1 .346-1.27l-43.268-14.94a2.353 2.353 0 0 1-.505 1.285 1.1 1.1 0 0 1-1.466.378 1.39 1.39 0 0 1-1.008-1.23 1.939 1.939 0 0 1 .41-1.32l-5.253-1.808a33.707 33.707 0 0 0-.52 1.57zm60.584 14.524a18.206 18.206 0 0 0 .382-7.733 19.989 19.989 0 0 0-.93-3.473 17.716 17.716 0 0 0-1.503-3.12 15.783 15.783 0 0 0-2.043-2.668 13.549 13.549 0 0 0-4.286-3.259c.097.158.196.32.29.484a21.115 21.115 0 0 1 1.7 3.742 24.271 24.271 0 0 1 1.028 4.18 26.994 26.994 0 0 1 .314 4.498 29.363 29.363 0 0 1-.571 5.409zm-7.812-2.697a21.764 21.764 0 0 0 .52-3.536 26.151 26.151 0 0 0-.166-4.226 23.2 23.2 0 0 0-.927-3.95 19.958 19.958 0 0 0-1.557-3.53 16.9 16.9 0 0 0-2.148-3.001 26.959 26.959 0 0 0-.883-.939l-7.342-2.528a12.085 12.085 0 0 0-6.147-.289 15.719 15.719 0 0 0-3.252.844 17.86 17.86 0 0 0-3.106 1.534 19.915 19.915 0 0 0-2.87 2.164 20.284 20.284 0 0 0-2.295 2.74 16.888 16.888 0 0 0-2.038 3.6zm-34.512-11.91a24.234 24.234 0 0 1 2.984-4.824 22.813 22.813 0 0 1 2.724-2.876 20.957 20.957 0 0 1 3.074-2.264 18.984 18.984 0 0 1 3.33-1.596 17.056 17.056 0 0 1 3.491-.868 15.607 15.607 0 0 1 2.63-.142l-5.401-1.86a12.364 12.364 0 0 0-6.654-.187 16.785 16.785 0 0 0-3.539 1.042 19.839 19.839 0 0 0-3.4 1.825 23.127 23.127 0 0 0-3.163 2.54 24.065 24.065 0 0 0-2.545 3.187 18.177 18.177 0 0 0-1.84 3.153z" data-name="Контур 1292"/><path d="M1758.427 118.416a12.834 12.834 0 0 1-5.534-.396 14.748 14.748 0 0 1-4.845-3.178s-.428-.213-.562.188a.852.852 0 0 0 .23.772 12.633 12.633 0 0 0 4.734 3.505 11.067 11.067 0 0 0 5.647.07s.602-.161.66-.569a.315.315 0 0 0-.33-.392z" data-name="Контур 1296"/><path d="M1767.444 138.783a9.481 9.481 0 0 1-1.029.484c-1.604.664-5.174 1.986-8.96.682-4.633-1.595-7.485-7.427-7.485-7.427l-.126-.21a3.318 3.318 0 0 0-.193-.338 6.579 6.579 0 0 0-.656-.894 1.417 1.417 0 0 0-.586-.448.769.769 0 0 0-.409-.073.612.612 0 0 0-.377.174c-.824.858.093 2.592.093 2.592s3.514 7.646 8.765 9.455 12.24-2.224 12.24-2.224 2.272-1.206 1.682-2.152-2.96.379-2.96.379z" data-name="Контур 1297"/><path d="M1782.116 126.573a12.834 12.834 0 0 1-5.534-.396 14.748 14.748 0 0 1-4.845-3.178s-.428-.213-.562.188a.852.852 0 0 0 .23.772 12.633 12.633 0 0 0 4.734 3.505 11.067 11.067 0 0 0 5.647.07s.602-.161.66-.569a.315.315 0 0 0-.33-.392z" data-name="Контур 1309"/></g></g></g></svg>