<svg xmlns="http://www.w3.org/2000/svg" viewBox="0 0 101.808 101.808"><g data-name="social-care (1)"><g data-name="Сгруппировать 376"><g data-name="Сгруппировать 375"><path fill="#000879" d="M21.84 98.669l-2.994-4.217a1.988 1.988 0 1 0-3.243 2.3l2.994 4.217a1.988 1.988 0 1 0 3.243-2.3z" data-name="Контур 1181"/></g></g><g data-name="Сгруппировать 378"><g data-name="Сгруппировать 377"><path fill="#000879" d="M44.78 99.411l-3.258-15.527A29.284 29.284 0 0 0 29.137 65.5l-6.956-4.677a7 7 0 0 0-8.869.905v-23.96A6.657 6.657 0 0 0 2.49 32.576a6.625 6.625 0 0 0-2.491 5.192v30.831a19.261 19.261 0 0 0 3.575 11.209l3.546 5a1.988 1.988 0 0 0 3.243-2.3l-3.546-5a15.3 15.3 0 0 1-2.84-8.907V37.768a2.68 2.68 0 1 1 5.359 0v24.461a13.893 13.893 0 0 0 3.583 9.329c.1.119.2.236.308.35 1.321 1.4 2.873 3.048 4.335 4.6l2.047 2.179.02.02 3.07 3.267a1.989 1.989 0 1 0 2.9-2.722c-.036-.039-2.364-2.517-5.022-5.342l-4.559-4.852-.034-.038a3.355 3.355 0 0 1 .065-4.4 3.006 3.006 0 0 1 3.914-.5l6.955 4.677a25.326 25.326 0 0 1 10.711 15.9l3.26 15.531a1.988 1.988 0 1 0 3.892-.817z" data-name="Контур 1182"/></g></g><g data-name="Сгруппировать 380"><g data-name="Сгруппировать 379"><path fill="#000879" d="M14.728 88.656l-.013-.018a1.988 1.988 0 0 0-3.237 2.31l.013.018a1.988 1.988 0 0 0 3.237-2.31z" data-name="Контур 1183"/></g></g><g data-name="Сгруппировать 382"><g data-name="Сгруппировать 381"><path fill="#000879" d="M99.317 32.576a6.657 6.657 0 0 0-10.822 5.192v23.96a7 7 0 0 0-8.869-.905L72.67 65.5a29.282 29.282 0 0 0-12.385 18.384l-3.258 15.527a1.988 1.988 0 1 0 3.892.816L64.177 84.7a25.327 25.327 0 0 1 10.711-15.9l6.956-4.677a3.006 3.006 0 0 1 3.914.5 3.355 3.355 0 0 1 .069 4.393l-.038.042-9.585 10.198a1.989 1.989 0 1 0 2.9 2.722c.027-.029 8.152-8.668 9.473-10.067.108-.114.209-.231.308-.35a13.894 13.894 0 0 0 3.583-9.328V37.768a2.68 2.68 0 1 1 5.359 0v30.831a15.3 15.3 0 0 1-2.84 8.907L79.964 98.668a1.988 1.988 0 1 0 3.243 2.3L98.23 79.806a19.261 19.261 0 0 0 3.574-11.209V37.768a6.627 6.627 0 0 0-2.487-5.192z" data-name="Контур 1184"/></g></g><g data-name="Сгруппировать 384"><g data-name="Сгруппировать 383"><path fill="#000879" d="M76.089 38.111l-3.538-.845v-.634a8.894 8.894 0 0 0 3.807-7.292v-4.602a8.892 8.892 0 0 0-14.678-6.761 11.61 11.61 0 0 0-21.518.016 8.892 8.892 0 0 0-14.687 6.745v4.6a8.894 8.894 0 0 0 3.807 7.292v.634l-3.538.845a9.315 9.315 0 0 0-7.174 9.09v3.714a1.989 1.989 0 0 0 1.988 1.988h9.137c-.014.241-.024.484-.024.728v7.15a1.989 1.989 0 0 0 1.988 1.988h11.952a1.989 1.989 0 1 0 0-3.977h-2.054v-4.108a1.989 1.989 0 0 0-3.977 0v4.109h-3.933V53.63a8.233 8.233 0 0 1 6.334-8.031l5.457-1.308 3.652 8.308a1.988 1.988 0 0 0 1.82 1.188 1.988 1.988 0 0 0 1.82-1.188l3.648-8.3 5.439 1.3a8.232 8.232 0 0 1 6.34 8.033v5.156h-3.933v-4.106a1.989 1.989 0 0 0-3.977 0v4.109h-2.253a1.989 1.989 0 0 0 0 3.977h12.152a1.989 1.989 0 0 0 1.988-1.988v-7.142c0-.246-.01-.491-.024-.734h9.163a1.989 1.989 0 0 0 1.988-1.988V47.2a9.315 9.315 0 0 0-7.172-9.089zm-8.63-18.293a4.929 4.929 0 0 1 4.912 4.6h-2.765a14.494 14.494 0 0 1-6.667-1.625 4.929 4.929 0 0 1 4.52-2.975zm-4.923 9.231c0-.1.007-.193.007-.291v-1.771a18.471 18.471 0 0 0 7.063 1.405h2.774v.946a4.923 4.923 0 1 1-9.845 0zm-19.245-6.7a7.638 7.638 0 0 1 15.179-1.211l-3.348-1.967a1.988 1.988 0 0 0-2.531.437 8.567 8.567 0 0 1-6.582 3.072h-2.718v-.329zm-8.917-2.535a4.93 4.93 0 0 1 4.52 2.973 14.494 14.494 0 0 1-6.667 1.625h-2.765a4.929 4.929 0 0 1 4.912-4.594zm-4.923 8.575h2.775a18.472 18.472 0 0 0 7.07-1.408v2.357a4.923 4.923 0 0 1-9.845 0v-.947zm9.6 13.339a12.2 12.2 0 0 0-8.45 7.194h-8.06V47.2a5.351 5.351 0 0 1 4.121-5.222l5.064-1.21a1.988 1.988 0 0 0 1.527-1.934v-.669a8.631 8.631 0 0 0 2.223 0v.662a1.992 1.992 0 0 0 1.616 1.956l2.966.711zm5.547-3.087a9.33 9.33 0 0 0-1.592-.537l-3.552-.851v-.615a8.972 8.972 0 0 0 1.726-1.576 11.706 11.706 0 0 0 3.421 3.429zm8.636 2.922l-2.327 5.292-2.327-5.302v-1.415a11.654 11.654 0 0 0 4.659.008zm-2.31-5.171a7.646 7.646 0 0 1-7.638-7.638v-2.1h2.718a12.529 12.529 0 0 0 8.449-3.264l4.1 2.409v3.246a7.645 7.645 0 0 1-7.624 7.351zm6.287 2.255v-.135a11.7 11.7 0 0 0 3.449-3.437 8.971 8.971 0 0 0 1.709 1.558v.62l-3.552.851a9.363 9.363 0 0 0-1.601.547zm22.07 10.274h-8.087a12.192 12.192 0 0 0-8.451-7.183l-1-.238 2.982-.715a1.99 1.99 0 0 0 1.625-1.958v-.657a8.632 8.632 0 0 0 2.223 0v.668a1.988 1.988 0 0 0 1.527 1.934l5.064 1.21a5.351 5.351 0 0 1 4.121 5.222z" data-name="Контур 1185"/></g></g><g data-name="Сгруппировать 386"><g data-name="Сгруппировать 385"><path fill="#000879" d="M52.309 59.373a1.989 1.989 0 1 0 .583 1.408 2 2 0 0 0-.583-1.408z" data-name="Контур 1186"/></g></g><g data-name="Сгруппировать 388"><g data-name="Сгруппировать 387"><path fill="#000879" d="M50.902 0a1.989 1.989 0 0 0-1.988 1.988v2.976a1.989 1.989 0 0 0 3.977 0V1.988A1.988 1.988 0 0 0 50.902 0z" data-name="Контур 1187"/></g></g><g data-name="Сгруппировать 390"><g data-name="Сгруппировать 389"><path fill="#000879" d="M43.578 6.486l-2.086-2.084a1.988 1.988 0 1 0-2.811 2.813l2.086 2.084a1.988 1.988 0 1 0 2.81-2.813z" data-name="Контур 1188"/></g></g><g data-name="Сгруппировать 392"><g data-name="Сгруппировать 391"><path fill="#000879" d="M63.077 4.453a1.988 1.988 0 0 0-2.812 0l-2.07 2.072a1.988 1.988 0 1 0 2.813 2.811l2.07-2.072a1.988 1.988 0 0 0-.001-2.811z" data-name="Контур 1189"/></g></g></g></svg>