<svg xmlns="http://www.w3.org/2000/svg" viewBox="0 0 116.808 116.919"><g fill="#000879"><path d="M87.186 52.766a1.924 1.924 0 0 0-1.805-1.259h-.005a9.611 9.611 0 0 0-2.544-13.9 9.62 9.62 0 0 0-13.758-11.773 11.546 11.546 0 0 0-21.256 0 9.622 9.622 0 0 0-13.757 11.773 9.632 9.632 0 0 0-4.253 10.181l3.76-.818a5.781 5.781 0 0 1 3.729-6.682 1.924 1.924 0 0 0 .962-2.887 5.769 5.769 0 0 1 8.656-7.5c-.006.146-.011.292-.011.439a11.467 11.467 0 0 0 .962 4.617l3.526-1.541a7.641 7.641 0 0 1-.641-3.078 7.8 7.8 0 0 1 .057-.922v-.006a7.694 7.694 0 0 1 15.275 0 1.924 1.924 0 0 0 3.371 1.023 5.772 5.772 0 0 1 9.18 6.962 1.924 1.924 0 0 0 .962 2.887A5.772 5.772 0 0 1 77.685 51.5h-18.7a3.367 3.367 0 0 1 2.621-5.178l-.24-3.84a7.211 7.211 0 0 0-6.527 9.018h-23.33a1.924 1.924 0 0 0-1.923 1.931V115a1.924 1.924 0 0 0 1.924 1.924h46.176A11.557 11.557 0 0 0 89.23 105.38V91.909h9.62a1.924 1.924 0 0 0 1.805-2.589zm-53.751 17.98h7.984a23.682 23.682 0 0 1-7.984 5.044zm11.241-3.848H33.433V63.05h13.378a23.959 23.959 0 0 1-2.137 3.85zm4.075-11.543a23.868 23.868 0 0 1-.625 3.848H33.433v-3.848zm38.554 32.707a1.924 1.924 0 0 0-1.924 1.924v5.706a11.01 11.01 0 0 1-8.019-4.849l-3.2 2.135a14.85 14.85 0 0 0 11.22 6.58v5.82a7.7 7.7 0 0 1-7.7 7.7h-44.25V79.861a27.758 27.758 0 0 0 19.169-24.506h31.435l12.05 32.706z" data-name="Контур 1221"/><path d="M45.325 42.368a3.362 3.362 0 0 1 2.226.842l2.546-2.886a7.215 7.215 0 0 0-11.987 5.411h3.852a3.371 3.371 0 0 1 3.363-3.367z" data-name="Контур 1222"/><path d="M70.935 37.913a3.364 3.364 0 0 1 .98 2.169l3.84-.241a7.215 7.215 0 0 0-12.3-4.65l2.721 2.721a3.371 3.371 0 0 1 4.761 0z" data-name="Контур 1223"/><path d="M56.52 9.18h3.848v5.772H56.52z" data-name="Контур 1224"/><path d="M56.52 1.485h3.848v3.848H56.52z" data-name="Контур 1225"/><path d="M.726 41.887h5.772v3.848H.726z" data-name="Контур 1226"/><path d="M10.346 41.887h15.391v3.848H10.346z" data-name="Контур 1227"/><path d="M0 22.504l1.428-3.573 3.848 1.538-1.428 3.573z" data-name="Контур 1228"/><path d="M7.691 25.592l1.428-3.573 21.165 8.461-1.429 3.573z" data-name="Контур 1229"/><path d="M35.542 2.352l3.442-1.72 1.923 3.845-3.442 1.721z" data-name="Контур 1230"/><path d="M39.386 10.046l3.442-1.72 5.771 11.543-3.441 1.72z" data-name="Контур 1231"/><path d="M15.645 8.695l2.542-2.889 17.49 15.395-2.542 2.888z" data-name="Контур 1232"/><path d="M9.081 2.926L11.623.037l3.848 3.387-2.542 2.889z" data-name="Контур 1233"/><path d="M110.39 41.887h5.772v3.848h-5.772z" data-name="Контур 1234"/><path d="M91.15 41.887h15.391v3.848H91.15z" data-name="Контур 1235"/><path d="M111.535 20.506l3.848-1.538 1.428 3.573-3.848 1.538z" data-name="Контур 1236"/><path d="M86.534 30.498l21.164-8.461 1.429 3.573-21.165 8.461z" data-name="Контур 1237"/><path d="M75.944 4.505L77.867.659l3.442 1.72-1.923 3.847z" data-name="Контур 1238"/><path d="M68.245 19.89l5.772-11.543 3.441 1.72-5.771 11.544z" data-name="Контур 1239"/><path d="M81.251 21.177l17.49-15.394 2.543 2.888-17.49 15.395z" data-name="Контур 1240"/><path d="M101.454 3.388l3.848-3.387 2.542 2.889-3.848 3.387z" data-name="Контур 1241"/><path d="M71.911 75.556a4.81 4.81 0 1 1-9.62 0V72.67h-3.847v2.886a8.658 8.658 0 0 0 17.315 0V72.67h-3.848z" data-name="Контур 1242"/></g></svg>