<svg xmlns="http://www.w3.org/2000/svg" viewBox="0 0 95.808 101.141"><g fill="#000879"><path d="M74.107 69.203L57.3 77.526a7.386 7.386 0 0 0-5.082-5.373l-7.781-2.307c-5.61-1.668-12.993-3.038-20.349 1.2-.467.268-.885.535-1.254.772a7.138 7.138 0 0 1-4.7 1.457 5.283 5.283 0 0 0-4.89-3.3H5.276A5.281 5.281 0 0 0 0 75.248v18.503a5.28 5.28 0 0 0 5.276 5.273h7.973a5.281 5.281 0 0 0 5.263-4.929 31.611 31.611 0 0 1 9.946 1.612c2.464.726 13 3.789 13.8 4.022a26 26 0 0 0 7.19 1.413c2.618 0 5.356-.823 8.956-3.222l.05-.034 23.139-16.467a7.265 7.265 0 0 0 2.223-9.794c-1.981-3.2-6.062-4.223-9.707-2.422zM14.574 93.751a1.325 1.325 0 0 1-1.325 1.323H5.276a1.325 1.325 0 0 1-1.325-1.323V75.256a1.325 1.325 0 0 1 1.325-1.323h7.973a1.325 1.325 0 0 1 1.325 1.323v18.495zM79.3 78.199l-23.116 16.45c-5.241 3.486-7.466 2.841-12.829 1.286-.812-.235-11.322-3.292-13.784-4.017a35.064 35.064 0 0 0-11.049-1.77V77.224a10.888 10.888 0 0 0 6.442-2.075c.346-.222.7-.452 1.091-.673 4.789-2.762 9.949-3.014 17.256-.842l7.789 2.307a3.418 3.418 0 0 1 2.319 4.217v.009a3.415 3.415 0 0 1-4.226 2.3L38.06 79.244a1.976 1.976 0 0 0-1.1 3.795l11.128 3.225a7.378 7.378 0 0 0 8.806-4.128l18.964-9.392a3.474 3.474 0 0 1 4.6.961 3.363 3.363 0 0 1-1.153 4.494z" data-name="Контур 1243"/><path d="M39.972 45.242l8.18 7.89a1.975 1.975 0 0 0 2.743 0l8.18-7.89.05-.05a8.143 8.143 0 0 0 0-11.211 7.165 7.165 0 0 0-9.6-.293 7.153 7.153 0 0 0-9.6.293 8.131 8.131 0 0 0 0 11.212zm2.793-8.517c1.245-1.29 3.3-.886 4.5.229l.078.073a2.688 2.688 0 0 0 4.366 0l.073-.069c1.194-1.115 3.255-1.518 4.5-.229a4.211 4.211 0 0 1 .022 5.7l-6.781 6.54-6.782-6.541a4.149 4.149 0 0 1 .024-5.702z" data-name="Контур 1244"/><path d="M5.208 44.805h10.685a1.976 1.976 0 0 0 0-3.951H5.208a1.976 1.976 0 0 0 0 3.951z" data-name="Контур 1245"/><path d="M5.765 31.48l9.268 4.524a1.975 1.975 0 1 0 1.733-3.55L7.498 27.93a1.975 1.975 0 1 0-1.733 3.55z" data-name="Контур 1246"/><path d="M15.033 49.655l-9.268 4.524a1.975 1.975 0 1 0 1.733 3.55l9.268-4.524a1.975 1.975 0 1 0-1.733-3.55z" data-name="Контур 1247"/><path d="M93.832 40.854H83.147a1.976 1.976 0 0 0 0 3.951h10.685a1.976 1.976 0 1 0 0-3.951z" data-name="Контур 1248"/><path d="M83.148 36.205a1.969 1.969 0 0 0 .866-.2l9.262-4.524a1.975 1.975 0 1 0-1.734-3.55l-9.262 4.524a1.976 1.976 0 0 0 .869 3.751z" data-name="Контур 1249"/><path d="M93.276 54.179l-9.262-4.524a1.975 1.975 0 1 0-1.734 3.55l9.262 4.524a1.975 1.975 0 1 0 1.734-3.55z" data-name="Контур 1250"/><path d="M24.541 27.171v28.89a6.789 6.789 0 0 0 6.783 6.78h36.4a6.786 6.786 0 0 0 6.777-6.78V27.172a6.42 6.42 0 0 0 5.256-6.3v-2.808a6.419 6.419 0 0 0-6.413-6.41h-4.092a8.6 8.6 0 0 0-.4-5.485A9.76 9.76 0 0 0 61.23.045C58.309-.27 55.648 1.1 53.735 3.907l-4.216 6.207-4.221-6.208C43.395 1.1 40.735-.269 37.815.044a9.762 9.762 0 0 0-7.628 6.125 8.6 8.6 0 0 0-.4 5.484H25.7a6.419 6.419 0 0 0-6.413 6.41v2.805a6.421 6.421 0 0 0 5.25 6.3zM57.006 6.128c1.079-1.586 2.359-2.312 3.8-2.156a5.807 5.807 0 0 1 4.382 3.671 4.564 4.564 0 0 1-.178 4.011H53.253zM33.853 7.644a5.809 5.809 0 0 1 4.382-3.672c1.441-.156 2.719.57 3.8 2.156l3.757 5.526H34.035a4.562 4.562 0 0 1-.182-4.01zm-10.611 10.42a2.463 2.463 0 0 1 2.462-2.459h47.637a2.464 2.464 0 0 1 2.462 2.459v2.805a2.464 2.464 0 0 1-2.462 2.459H49.523a1.976 1.976 0 1 0 0 3.951h21.025v28.782a2.831 2.831 0 0 1-2.827 2.829h-36.4a2.834 2.834 0 0 1-2.832-2.829V27.279h2.989a1.976 1.976 0 1 0 0-3.951h-5.777a2.463 2.463 0 0 1-2.462-2.459v-2.805z" data-name="Контур 1251"/><path d="M40.356 27.279a1.976 1.976 0 0 0 0-3.951h-.006a1.976 1.976 0 0 0 .006 3.951z" data-name="Контур 1252"/></g></svg>