<svg xmlns="http://www.w3.org/2000/svg" xmlns:xlink="http://www.w3.org/1999/xlink" width="79.911" height="71.916" viewBox="0 0 79.911 71.916"><defs><filter id="a" x="0" y="0" width="79.911" height="71.916" filterUnits="userSpaceOnUse"><feOffset dx="3" dy="3" input="SourceAlpha"/><feGaussianBlur stdDeviation="7.5" result="b"/><feFlood flood-color="#131b88" flood-opacity="0.169"/><feComposite operator="in" in2="b"/><feComposite in="SourceGraphic"/></filter></defs><g transform="matrix(1, 0, 0, 1, 0, 0)" filter="url(#a)"><path d="M10.111-5.893A4.742,4.742,0,0,1,6.987-7.01,5,5,0,0,1,5.259-9.8L.93-28.864a5.668,5.668,0,0,1-.07-.7,3.134,3.134,0,0,1,.943-2.3,3.093,3.093,0,0,1,2.269-.943,3.168,3.168,0,0,1,2.042.716,3.15,3.15,0,0,1,1.135,1.833l3.526,16.652,4.259-16.478a3.391,3.391,0,0,1,1.274-1.955,3.589,3.589,0,0,1,2.252-.768,3.468,3.468,0,0,1,2.234.785,3.494,3.494,0,0,1,1.257,1.938l4.224,16.338,3.561-16.687a2.884,2.884,0,0,1,1.047-1.693,2.912,2.912,0,0,1,1.885-.681,2.9,2.9,0,0,1,2.13.873,2.9,2.9,0,0,1,.873,2.13,4.275,4.275,0,0,1-.07.663L31.337-9.8A4.928,4.928,0,0,1,29.574-7.01a4.878,4.878,0,0,1-3.159,1.117,4.907,4.907,0,0,1-3.107-1.065,4.889,4.889,0,0,1-1.78-2.706L18.245-22.615,14.964-9.663A4.845,4.845,0,0,1,13.2-6.94,4.888,4.888,0,0,1,10.111-5.893Z" transform="translate(18.64 52.31)" fill="#fff"/></g></svg>